<?xml version="1.0" encoding="iso-8859-1"?>
<!-- Generator: Adobe Illustrator 16.0.0, SVG Export Plug-In . SVG Version: 6.00 Build 0)  -->
<!DOCTYPE svg PUBLIC "-//W3C//DTD SVG 1.1//EN" "http://www.w3.org/Graphics/SVG/1.1/DTD/svg11.dtd">
<svg version="1.1" id="Capa_1" xmlns="http://www.w3.org/2000/svg" xmlns:xlink="http://www.w3.org/1999/xlink" x="0px" y="0px"
	 width="434.906px" height="434.907px" viewBox="0 0 434.906 434.907" style="enable-background:new 0 0 434.906 434.907;"
	 xml:space="preserve">
<g>
	<g id="Layer_2_18_">
		<path d="M378.617,390.375v-31.731h25.018c21.313-133.894-10.424-146.633-10.424-189.023s0-155.666,0-155.666s-65.555,0-128.564,0
			c0.711,22.955,0.968,54.016-5.346,86.32c1.726,4.777,6.387,15.352,15.5,21.809c-0.565,4.27-1.264,8.422-2.082,12.453l-1.022,1.941
			c-7.613-4.008-13.244-9.887-17.32-15.697c-1.416,4.928-3.014,9.85-4.813,14.744c1.453,4.291,6.262,16.254,16.395,23.094
			c-1.641,4.506-3.447,8.832-5.4,12.988c-8.485-4.979-14.381-12.246-18.274-18.824c-2.07,4.301-4.315,8.555-6.769,12.748
			c1.705,4.783,6.527,15.883,16.137,22.377c-2.512,3.992-5.155,7.811-7.926,11.432c-8.246-5.615-13.754-13.381-17.239-19.932
			c-4.044,5.586-8.516,11.012-13.428,16.238c2.248,5.529,7.111,14.893,15.748,20.516c-3.444,3.371-6.983,6.541-10.59,9.516
			c-7.594-5.871-12.617-13.51-15.75-19.742c-4.91,4.367-10.195,8.551-15.893,12.52c2.393,5.558,7.115,14.041,15.102,19.334
			c-4.258,2.771-8.541,5.315-12.799,7.649c-6.893-6.104-11.393-13.562-14.135-19.395c-5.326,3.127-10.973,6.072-16.936,8.836
			c2.754,5.789,7.68,13.59,15.564,18.236c-5.152,2.301-10.172,4.303-14.979,6.051c-6.506-6.029-10.777-13.229-13.398-18.855
			c-6.396,2.479-13.143,4.744-20.229,6.797c2.742,5.714,7.57,13.308,15.236,17.921c-6.795,1.862-12.611,3.133-16.988,3.963
			c-5.875-6.166-9.662-13.142-11.912-18.324c-14.465,3.39-30.258,5.745-47.52,7.441c-23.875,2.347-39.375,13.847-46.338,26.062
			C5.808,301.092,0,358.645,0,358.645l42.799,62.308h392.107v-30.578H378.617z M120.099,390.375H54.224
			c0,0-23.643-33.58-23.631-34.512h89.506V390.375z M348.039,390.375H150.678v-35.422c82.871-9.336,134.051-24.603,152.885-25.498
			c19.459-0.926,18.067,29.188,18.067,29.188h26.408V390.375L348.039,390.375z"/>
	</g>
</g>
<g>
</g>
<g>
</g>
<g>
</g>
<g>
</g>
<g>
</g>
<g>
</g>
<g>
</g>
<g>
</g>
<g>
</g>
<g>
</g>
<g>
</g>
<g>
</g>
<g>
</g>
<g>
</g>
<g>
</g>
</svg>
