<?xml version="1.0" encoding="iso-8859-1"?>
<!-- Generator: Adobe Illustrator 18.0.0, SVG Export Plug-In . SVG Version: 6.00 Build 0)  -->
<!DOCTYPE svg PUBLIC "-//W3C//DTD SVG 1.1//EN" "http://www.w3.org/Graphics/SVG/1.1/DTD/svg11.dtd">
<svg version="1.1" id="Capa_1" xmlns="http://www.w3.org/2000/svg" xmlns:xlink="http://www.w3.org/1999/xlink" x="0px" y="0px"
	 viewBox="0 0 419 419" style="enable-background:new 0 0 419 419;" xml:space="preserve">
<g id="XMLID_1_">
	<path id="XMLID_3_" d="M320.166,384.167c-2.878,0-47.084-21.798-94.97-22.794V203.498c-4.647-1.306-9.126-3.157-13.363-5.544
		c-4.237,2.387-8.716,4.238-13.363,5.544v159.462C158.59,368.304,125.476,385,122.833,385c-58.883,0-106.552,15.249-105.995,33.992
		c0.003,0.003,0.005,0.005,0.008,0.008H166.94h31.53h26.727h3.623h168.245c5.012,0,7.004-6.455,2.882-9.305
		C380.015,395.915,349.731,384.167,320.166,384.167z"/>
	<path id="XMLID_31_" d="M61.663,175.785c14.148,0,26.107-9.358,30.034-22.22c3.927,12.862,15.886,22.22,30.034,22.22
		c14.148,0,26.107-9.358,30.034-22.22c3.927,12.862,15.886,22.22,30.034,22.22c14.148,0,26.107-9.358,30.034-22.22
		c3.927,12.863,15.886,22.22,30.034,22.22c14.148,0,26.107-9.358,30.034-22.22c3.927,12.862,15.886,22.22,30.034,22.22
		c14.148,0,26.107-9.358,30.034-22.22c3.927,12.862,15.886,22.22,30.034,22.22c17.342,0,31.401-14.059,31.401-31.401
		c0-11.794-36.583-104.048-168.208-109.94V6.716c0-3.709-3.007-6.716-6.716-6.716h-13.294c-3.709,0-6.716,3.007-6.716,6.716v27.728
		C66.845,40.332,30.262,132.536,30.262,144.384C30.262,161.726,44.32,175.785,61.663,175.785z"/>
</g>
<g>
</g>
<g>
</g>
<g>
</g>
<g>
</g>
<g>
</g>
<g>
</g>
<g>
</g>
<g>
</g>
<g>
</g>
<g>
</g>
<g>
</g>
<g>
</g>
<g>
</g>
<g>
</g>
<g>
</g>
</svg>
