<?xml version="1.0" encoding="iso-8859-1"?>
<!-- Generator: Adobe Illustrator 16.0.0, SVG Export Plug-In . SVG Version: 6.00 Build 0)  -->
<!DOCTYPE svg PUBLIC "-//W3C//DTD SVG 1.1//EN" "http://www.w3.org/Graphics/SVG/1.1/DTD/svg11.dtd">
<svg xmlns="http://www.w3.org/2000/svg" xmlns:xlink="http://www.w3.org/1999/xlink" version="1.1" id="Capa_1" x="0px" y="0px" width="512px" height="512px" viewBox="0 0 363.025 363.024" style="enable-background:new 0 0 363.025 363.024;" xml:space="preserve">
<g>
	<path d="M363.025,181.513c0-49.355-20.271-96.623-55.762-130.777l0.132-0.117l-4.872-4.362l-3.905-3.488   l-0.092,0.08C265.796,15.201,224.472,0,181.512,0C138.553,0,97.226,15.201,64.497,42.842l-0.089-0.074l-3.905,3.488l-4.872,4.362   l0.129,0.117C20.271,84.89,0,132.157,0,181.513c0,49.357,20.271,96.629,55.759,130.782l-0.129,0.114l4.872,4.368l3.905,3.488   l0.089-0.08c32.724,27.641,74.051,42.839,117.016,42.839c42.966,0,84.295-15.198,117.014-42.839l0.092,0.08l3.905-3.499   l4.872-4.357l-0.132-0.12C342.754,278.142,363.025,230.87,363.025,181.513z M68.705,300.127c-0.966,0.989-1.944,1.979-2.939,2.95   c-0.458,0.446-0.938,0.881-1.398,1.315c-33.533-31.987-52.657-76.467-52.657-122.88c0-46.414,19.124-90.891,52.657-122.878   c0.46,0.443,0.94,0.872,1.398,1.318c0.995,0.972,1.973,1.961,2.939,2.95c1.09,1.112,2.167,2.242,3.223,3.383   c0.935,1.021,1.861,2.05,2.773,3.087c0.592,0.672,1.167,1.358,1.747,2.036L59.501,88.354l8.28,8.28l15.997-15.997   c0.608,0.821,1.218,1.639,1.81,2.477c0.9,1.266,1.778,2.547,2.645,3.842c0.755,1.129,1.512,2.264,2.244,3.414   c0.838,1.312,1.644,2.639,2.441,3.974c0.695,1.161,1.387,2.319,2.05,3.497c0.772,1.358,1.509,2.733,2.241,4.117   c0.632,1.189,1.258,2.37,1.861,3.571c0.704,1.407,1.37,2.822,2.033,4.246c0.561,1.206,1.129,2.413,1.667,3.631   c0.635,1.446,1.232,2.916,1.827,4.38c0.054,0.129,0.106,0.257,0.16,0.386l-17.151,7.505l4.697,10.727l16.477-7.213   c0.051,0.163,0.117,0.329,0.168,0.492c0.498,1.541,0.943,3.102,1.395,4.66c0.354,1.238,0.738,2.467,1.063,3.714   c0.423,1.592,0.792,3.196,1.167,4.8c0.286,1.229,0.603,2.459,0.86,3.694c0.352,1.652,0.638,3.322,0.938,4.983   c0.215,1.207,0.46,2.413,0.655,3.625c0.274,1.75,0.486,3.52,0.709,5.28c0.146,1.144,0.32,2.279,0.438,3.425   c0.206,1.97,0.34,3.954,0.475,5.932c0.066,0.955,0.171,1.898,0.223,2.851c0.051,0.998,0.046,2.004,0.083,2.999h-16.437v11.711   h16.437c-0.037,1-0.032,2.001-0.083,2.996c-0.052,0.955-0.151,1.904-0.223,2.854c-0.134,1.979-0.269,3.962-0.475,5.93   c-0.123,1.148-0.297,2.287-0.438,3.431c-0.223,1.761-0.429,3.522-0.703,5.277c-0.194,1.218-0.44,2.425-0.655,3.637   c-0.3,1.664-0.586,3.322-0.938,4.975c-0.263,1.241-0.575,2.476-0.866,3.7c-0.375,1.606-0.744,3.213-1.167,4.803   c-0.326,1.246-0.709,2.476-1.063,3.717c-0.452,1.555-0.897,3.11-1.395,4.654c-0.029,0.092-0.063,0.178-0.094,0.263l-16.482-7.182   l-4.677,10.738l17.143,7.468c-0.08,0.206-0.157,0.4-0.24,0.606c-0.594,1.47-1.187,2.933-1.827,4.386   c-0.532,1.218-1.101,2.418-1.661,3.625c-0.669,1.424-1.335,2.854-2.039,4.26c-0.603,1.201-1.229,2.379-1.861,3.562   c-0.732,1.378-1.469,2.762-2.241,4.123c-0.664,1.172-1.355,2.332-2.044,3.482c-0.803,1.344-1.609,2.67-2.453,3.984   c-0.726,1.145-1.475,2.276-2.232,3.408c-0.866,1.293-1.744,2.573-2.65,3.843c-0.592,0.835-1.201,1.652-1.81,2.47l-15.997-15.993   l-8.28,8.28l16.945,16.942c-0.58,0.687-1.161,1.372-1.752,2.047c-0.912,1.035-1.833,2.059-2.767,3.076   C70.872,297.886,69.794,299.006,68.705,300.127z M181.512,351.314c-39.686,0-77.905-13.826-108.327-39.071   c0.357-0.349,0.686-0.709,1.041-1.058c1.089-1.063,2.144-2.15,3.205-3.242c1.129-1.161,2.258-2.327,3.354-3.522   c1.021-1.109,2.01-2.235,3.005-3.367c0.329-0.378,0.643-0.761,0.972-1.133l10.632,10.63l8.28-8.28l-11.519-11.516   c0.195-0.252,0.395-0.509,0.586-0.761c0.892-1.194,1.758-2.396,2.619-3.613c0.935-1.327,1.861-2.665,2.762-4.015   c0.821-1.223,1.63-2.458,2.419-3.711c0.877-1.378,1.727-2.773,2.564-4.18c0.749-1.252,1.487-2.51,2.202-3.785   c0.809-1.43,1.592-2.876,2.361-4.334c0.678-1.281,1.352-2.567,1.996-3.859c0.738-1.481,1.447-2.974,2.144-4.478   c0.609-1.304,1.209-2.607,1.79-3.923c0.669-1.526,1.295-3.07,1.921-4.608c0.023-0.058,0.046-0.12,0.072-0.172l18.635,8.12   l4.68-10.738l-19.275-8.395c0.174-0.526,0.363-1.041,0.532-1.566c0.515-1.613,0.984-3.248,1.458-4.884   c0.392-1.344,0.797-2.688,1.152-4.036c0.44-1.67,0.826-3.357,1.224-5.038c0.317-1.344,0.652-2.676,0.932-4.02   c0.363-1.738,0.669-3.488,0.983-5.238c0.234-1.31,0.498-2.618,0.709-3.939c0.292-1.847,0.509-3.705,0.743-5.563   c0.158-1.241,0.346-2.471,0.475-3.717c0.218-2.059,0.352-4.14,0.498-6.21c0.077-1.058,0.188-2.104,0.24-3.156   c0.066-1.189,0.057-2.384,0.094-3.573h22.601v-11.711h-22.601c-0.043-1.189-0.037-2.385-0.094-3.571   c-0.051-1.055-0.168-2.102-0.24-3.157c-0.146-2.072-0.28-4.151-0.498-6.212c-0.128-1.241-0.323-2.47-0.475-3.711   c-0.234-1.858-0.451-3.719-0.743-5.563c-0.206-1.324-0.475-2.63-0.709-3.946c-0.314-1.752-0.615-3.496-0.983-5.234   c-0.28-1.347-0.621-2.682-0.932-4.028c-0.392-1.682-0.778-3.362-1.215-5.032c-0.357-1.358-0.764-2.699-1.155-4.04   c-0.475-1.632-0.943-3.262-1.458-4.877c-0.191-0.609-0.409-1.207-0.615-1.81l19.252-8.426l-4.697-10.727l-18.612,8.145   c-0.615-1.521-1.235-3.039-1.893-4.542c-0.578-1.324-1.181-2.63-1.79-3.934c-0.698-1.501-1.407-2.993-2.145-4.469   c-0.649-1.295-1.318-2.582-1.995-3.865c-0.775-1.452-1.553-2.905-2.362-4.332c-0.715-1.272-1.458-2.53-2.202-3.783   c-0.837-1.406-1.692-2.799-2.564-4.174c-0.789-1.249-1.592-2.479-2.413-3.708c-0.906-1.353-1.827-2.693-2.767-4.022   c-0.855-1.212-1.727-2.413-2.613-3.6c-0.191-0.257-0.392-0.512-0.583-0.764l11.517-11.516l-8.28-8.28L84.772,63.106   c-0.329-0.374-0.643-0.755-0.972-1.129c-0.989-1.13-1.979-2.259-3.005-3.368c-1.095-1.192-2.224-2.358-3.354-3.522   c-1.061-1.089-2.113-2.179-3.202-3.245c-0.352-0.346-0.686-0.709-1.043-1.055c30.417-25.248,68.636-39.077,108.316-39.077   c39.684,0,77.902,13.829,108.328,39.077c-0.36,0.346-0.686,0.709-1.046,1.055c-1.087,1.066-2.139,2.156-3.202,3.245   c-1.127,1.164-2.253,2.33-3.352,3.522c-1.018,1.109-2.013,2.238-3.007,3.368c-0.098,0.111-0.189,0.229-0.286,0.34l-9.847-9.844   l-8.279,8.28l10.692,10.692c-0.412,0.532-0.823,1.058-1.229,1.598c-0.886,1.187-1.755,2.381-2.602,3.588   c-0.938,1.335-1.864,2.676-2.773,4.034c-0.817,1.224-1.624,2.461-2.413,3.703c-0.875,1.381-1.727,2.773-2.567,4.174   c-0.743,1.252-1.486,2.511-2.195,3.783c-0.812,1.435-1.596,2.879-2.367,4.332c-0.675,1.283-1.35,2.564-1.99,3.865   c-0.743,1.481-1.44,2.968-2.144,4.469c-0.612,1.304-1.219,2.61-1.79,3.934c-0.618,1.398-1.189,2.816-1.767,4.234l-17.389-7.576   l-4.678,10.738l17.989,7.839c-0.24,0.709-0.492,1.41-0.721,2.125c-0.515,1.615-0.983,3.25-1.464,4.877   c-0.389,1.347-0.789,2.688-1.149,4.04c-0.446,1.675-0.829,3.368-1.224,5.055c-0.314,1.33-0.646,2.659-0.926,4   c-0.372,1.744-0.675,3.499-0.989,5.258c-0.235,1.309-0.498,2.61-0.704,3.928c-0.291,1.844-0.509,3.706-0.743,5.564   c-0.154,1.235-0.349,2.47-0.475,3.711c-0.217,2.061-0.354,4.14-0.497,6.212c-0.074,1.055-0.188,2.102-0.24,3.156   c-0.062,1.187-0.058,2.382-0.098,3.571h-21.128v11.711h21.128c0.046,1.188,0.04,2.384,0.098,3.567   c0.052,1.058,0.166,2.104,0.24,3.156c0.143,2.076,0.28,4.151,0.497,6.216c0.126,1.24,0.32,2.476,0.475,3.723   c0.234,1.853,0.452,3.717,0.743,5.558c0.206,1.315,0.469,2.618,0.704,3.929c0.314,1.755,0.617,3.516,0.989,5.26   c0.279,1.338,0.611,2.659,0.926,3.991c0.395,1.692,0.783,3.386,1.229,5.061c0.354,1.35,0.761,2.693,1.155,4.037   c0.469,1.636,0.938,3.265,1.452,4.883c0.252,0.801,0.537,1.584,0.806,2.367l-17.971,7.868l4.699,10.728l17.36-7.605   c0.549,1.338,1.092,2.677,1.67,4.003c0.583,1.314,1.189,2.619,1.795,3.922c0.698,1.504,1.407,2.997,2.139,4.478   c0.652,1.298,1.321,2.579,2.001,3.86c0.772,1.452,1.55,2.904,2.356,4.334c0.721,1.275,1.452,2.533,2.207,3.785   c0.835,1.406,1.692,2.802,2.562,4.18c0.789,1.252,1.59,2.487,2.413,3.711c0.903,1.35,1.83,2.688,2.768,4.02   c0.857,1.207,1.727,2.408,2.607,3.597c0.4,0.538,0.817,1.063,1.224,1.59l-10.687,10.687l8.279,8.28l9.841-9.841   c0.103,0.108,0.194,0.229,0.297,0.344c0.983,1.132,1.979,2.258,3.002,3.367c1.093,1.195,2.225,2.361,3.356,3.522   c1.058,1.092,2.116,2.179,3.202,3.242c0.35,0.349,0.687,0.709,1.041,1.058C259.415,337.488,221.196,351.314,181.512,351.314z    M298.658,304.393c-0.463-0.44-0.943-0.869-1.401-1.315c-0.994-0.972-1.967-1.955-2.938-2.95c-1.087-1.121-2.161-2.241-3.226-3.386   c-0.938-1.018-1.863-2.047-2.768-3.087c-0.365-0.412-0.715-0.835-1.074-1.247l17.742-17.737l-8.279-8.279l-16.851,16.845   c-0.006-0.006-0.006-0.011-0.012-0.017c-0.823-1.093-1.624-2.19-2.419-3.3c-0.897-1.274-1.784-2.556-2.647-3.854   c-0.761-1.121-1.51-2.253-2.235-3.396c-0.841-1.32-1.652-2.653-2.453-3.991c-0.687-1.155-1.384-2.31-2.047-3.482   c-0.767-1.354-1.51-2.739-2.242-4.122c-0.623-1.184-1.258-2.367-1.857-3.568c-0.704-1.401-1.367-2.825-2.042-4.254   c-0.561-1.207-1.126-2.408-1.658-3.626c-0.617-1.395-1.184-2.813-1.761-4.22l18.406-8.051l-4.706-10.727l-17.755,7.771   c-0.119-0.349-0.245-0.704-0.359-1.058c-0.504-1.539-0.949-3.094-1.396-4.654c-0.36-1.235-0.743-2.465-1.063-3.712   c-0.424-1.595-0.795-3.196-1.167-4.797c-0.286-1.235-0.605-2.459-0.869-3.706c-0.343-1.646-0.629-3.311-0.938-4.975   c-0.218-1.212-0.457-2.418-0.651-3.637c-0.275-1.749-0.492-3.521-0.709-5.283c-0.144-1.144-0.32-2.275-0.436-3.419   c-0.205-1.973-0.343-3.957-0.475-5.936c-0.062-0.955-0.171-1.898-0.223-2.848c-0.057-1.001-0.046-2.007-0.08-3.002h17.897v-11.71   h-17.897c0.034-1.001,0.023-2.001,0.08-2.997c0.052-0.955,0.148-1.904,0.223-2.853c0.132-1.979,0.27-3.963,0.475-5.93   c0.126-1.149,0.298-2.284,0.436-3.428c0.229-1.762,0.434-3.531,0.709-5.281c0.194-1.212,0.445-2.419,0.657-3.625   c0.303-1.661,0.589-3.331,0.938-4.98c0.263-1.243,0.577-2.467,0.863-3.696c0.372-1.604,0.743-3.214,1.167-4.801   c0.331-1.246,0.703-2.476,1.063-3.711c0.446-1.558,0.892-3.116,1.396-4.663c0.085-0.274,0.188-0.549,0.274-0.826l17.771,7.742   l4.677-10.738l-18.4-8.017c0.006-0.017,0.018-0.04,0.023-0.057c0.594-1.464,1.188-2.928,1.829-4.38   c0.532-1.218,1.098-2.424,1.67-3.631c0.663-1.424,1.326-2.845,2.03-4.245c0.6-1.201,1.234-2.388,1.857-3.571   c0.732-1.375,1.476-2.753,2.242-4.117c0.675-1.175,1.36-2.336,2.053-3.494c0.795-1.335,1.606-2.665,2.441-3.977   c0.731-1.146,1.48-2.285,2.241-3.414c0.869-1.29,1.75-2.57,2.647-3.84c0.795-1.115,1.596-2.216,2.419-3.311   c0.006-0.006,0.006-0.012,0.012-0.017l16.851,16.845l8.279-8.28L287.25,70.637c0.359-0.415,0.709-0.837,1.074-1.247   c0.915-1.038,1.842-2.067,2.773-3.085c1.059-1.144,2.133-2.267,3.22-3.385c0.972-0.995,1.944-1.979,2.938-2.951   c0.458-0.446,0.938-0.88,1.401-1.318c33.536,31.969,52.657,76.447,52.657,122.86C351.315,227.926,332.194,272.405,298.658,304.393z   " fill="#000000"/>
</g>
<g>
</g>
<g>
</g>
<g>
</g>
<g>
</g>
<g>
</g>
<g>
</g>
<g>
</g>
<g>
</g>
<g>
</g>
<g>
</g>
<g>
</g>
<g>
</g>
<g>
</g>
<g>
</g>
<g>
</g>
</svg>
