<?xml version="1.0" encoding="iso-8859-1"?>
<!-- Generator: Adobe Illustrator 16.0.0, SVG Export Plug-In . SVG Version: 6.00 Build 0)  -->
<!DOCTYPE svg PUBLIC "-//W3C//DTD SVG 1.1//EN" "http://www.w3.org/Graphics/SVG/1.1/DTD/svg11.dtd">
<svg xmlns="http://www.w3.org/2000/svg" xmlns:xlink="http://www.w3.org/1999/xlink" version="1.1" id="Capa_1" x="0px" y="0px" width="512px" height="512px" viewBox="0 0 348.422 348.422" style="enable-background:new 0 0 348.422 348.422;" xml:space="preserve">
<g>
	<g>
		<g>
			<path d="M322.998,182.563l-3.134-0.78l-11.493,32.306l-14.94-5.309l11.289-31.705l-3.242-1.222     c-8.881-3.375-17.889-7.593-26.787-12.526l-3.087-1.69l-15.15,26.788l-13.822-7.801l15.479-27.388l-2.653-1.85     c-9.86-6.87-19.396-14.715-28.355-23.329l-2.498-2.399l-21.845,21.692l-11.205-11.271l22.05-21.864l-2.162-2.492     c-7.698-8.983-14.712-18.549-20.837-28.439l-1.657-2.654l-29.006,13.232l-6.587-14.438l27.917-12.739l-1.591-3.267     c-3.907-8.067-7.287-16.387-10.043-24.725l-1.015-3.08l-37.452,8.713l-3.603-15.456l36.936-8.599l-0.646-3.357     c-0.745-3.891-1.579-8.437-2.102-12.997l-0.42-3.444l-3.453,0.318C117.628,4.527,79.678,22.377,51.035,51.043     C22.389,79.666,4.546,117.622,0.787,157.899L0.48,161.36l3.432,0.388c5.47,0.633,11.312,1.672,18.354,3.288l3.08,0.697     l12.943-36.471l14.967,5.333L40.56,170.308l3.333,1.18c9.062,3.263,17.942,7.208,26.421,11.701l3.044,1.633l16.885-29.892     l13.814,7.8l-17.086,30.282l2.723,1.838c9.74,6.521,19.203,14.003,28.156,22.254l2.504,2.306l23.605-23.419l11.154,11.271     l-23.599,23.449l2.243,2.51c7.803,8.731,14.925,17.99,21.134,27.479l1.672,2.558l30.162-13.78l6.63,14.453l-28.595,13.066     l1.706,3.309c3.972,7.698,7.407,15.702,10.55,24.47l1.075,2.954l37.397-8.701l3.598,15.463l-36.39,8.467l0.757,3.44     c1.471,6.467,2.51,12.388,3.188,18.11l0.408,3.429l3.447-0.33c40.292-3.735,78.272-21.587,106.897-50.224     c28.666-28.649,46.513-66.605,50.206-106.868l0.324-3.471l-3.453-0.384C338.125,185.914,331.309,184.617,322.998,182.563z" fill="#000000"/>
		</g>
		<g>
			<path d="M177.145,11.676l1.069,5.426l21.314-4.963l3.597,15.471l-20.81,4.819l1.267,3.714c2.447,7.152,5.449,14.396,8.956,21.584     l1.514,3.099l26.487-12.063l6.575,14.45l-25.238,11.506l2.239,3.446c5.44,8.413,11.031,15.97,17.09,23.116l2.475,2.933     l20.271-20.119l11.193,11.25l-20.5,20.359l2.611,2.516c8.053,7.656,16.315,14.517,24.602,20.414l3.195,2.288l13.9-24.572     l13.823,7.791l-14.231,25.218l3.129,1.735c7.902,4.425,16.087,8.286,24.343,11.472l3.387,1.303l8.804-24.644l14.951,5.333     l-8.586,24.133l3.843,0.916c5.788,1.366,10.977,2.336,15.864,2.969l4.144,0.543l-0.12-4.17     c-1.357-44.562-19.42-86.448-50.885-117.937c-31.441-31.444-73.343-49.51-117.938-50.87l-4.149-0.123l0.517,4.102     C176.142,6.629,176.665,9.193,177.145,11.676z M339.295,148.441c0.828,5.428,1.405,10.943,1.711,16.48     c-2.27-0.375-4.594-0.826-7.079-1.366L339.295,148.441z M187.398,7.674l-3.63,0.838c-0.081-0.369-0.145-0.739-0.204-1.102     C184.839,7.497,186.113,7.575,187.398,7.674z" fill="#000000"/>
		</g>
		<g>
			<path d="M169.918,329.608l-0.775-3.506l-21.938,5.104l-3.609-15.456l20.783-4.828l-1.438-3.789     c-2.969-7.812-6.074-14.784-9.494-21.293l-1.562-2.96l-25.709,11.715l-6.584-14.453l23.992-10.947l-2.381-3.471     c-5.335-7.859-11.16-15.33-17.27-22.211l-2.492-2.799l-18.687,18.566l-11.208-11.252l18.705-18.579l-2.727-2.504     c-7.68-7.067-15.861-13.601-24.328-19.378l-3.198-2.18l-12.244,21.659l-13.823-7.8l12.496-22.176l-3.216-1.693     c-7.686-4.077-15.762-7.65-23.971-10.635l-3.369-1.243l-7.358,20.663l-14.949-5.326l7.064-19.876l-3.954-0.865     c-4.594-0.987-8.701-1.726-12.55-2.236L0,175.286l0.111,4.192c1.39,44.555,19.474,86.433,50.923,117.922     c31.483,31.482,73.352,49.552,117.896,50.873l4.167,0.132l-0.552-4.126C171.999,339.841,171.161,335.193,169.918,329.608z" fill="#000000"/>
		</g>
	</g>
</g>
<g>
</g>
<g>
</g>
<g>
</g>
<g>
</g>
<g>
</g>
<g>
</g>
<g>
</g>
<g>
</g>
<g>
</g>
<g>
</g>
<g>
</g>
<g>
</g>
<g>
</g>
<g>
</g>
<g>
</g>
</svg>
