<?xml version="1.0" encoding="iso-8859-1"?>
<!-- Generator: Adobe Illustrator 16.0.0, SVG Export Plug-In . SVG Version: 6.00 Build 0)  -->
<!DOCTYPE svg PUBLIC "-//W3C//DTD SVG 1.1//EN" "http://www.w3.org/Graphics/SVG/1.1/DTD/svg11.dtd">
<svg xmlns="http://www.w3.org/2000/svg" xmlns:xlink="http://www.w3.org/1999/xlink" version="1.1" id="Capa_1" x="0px" y="0px" width="512px" height="512px" viewBox="0 0 259.864 259.864" style="enable-background:new 0 0 259.864 259.864;" xml:space="preserve">
<g>
	<g>
		<path d="M0,129.933c0-29.15,9.767-55.992,26.043-77.702c16.27,21.704,26.034,48.552,26.034,77.702    c0,29.147-9.764,55.994-26.034,77.696C9.767,185.927,0,159.08,0,129.933z" fill="#000000"/>
		<path d="M129.929,259.846c-31.706,0-60.766-11.433-83.338-30.359c21.891-27.316,35.074-61.904,35.074-99.548    c0-37.65-13.184-72.223-35.086-99.545c22.584-18.93,51.638-30.375,83.35-30.375c28.153,0,54.172,9.095,75.465,24.368    c-18.765,26.166-29.934,58.102-29.934,92.678c0,41.732,16.236,79.642,42.55,108.11    C194.832,246.611,163.937,259.846,129.929,259.846z" fill="#000000"/>
		<path d="M237.526,202.687c-20.152-22.891-32.474-52.818-32.474-85.635c0-26.938,8.238-51.989,22.338-72.766    c20.14,22.896,32.474,52.824,32.474,85.646C259.864,156.876,251.613,181.916,237.526,202.687z" fill="#000000"/>
	</g>
</g>
<g>
</g>
<g>
</g>
<g>
</g>
<g>
</g>
<g>
</g>
<g>
</g>
<g>
</g>
<g>
</g>
<g>
</g>
<g>
</g>
<g>
</g>
<g>
</g>
<g>
</g>
<g>
</g>
<g>
</g>
</svg>
