<?xml version="1.0" encoding="iso-8859-1"?>
<!-- Generator: Adobe Illustrator 18.1.1, SVG Export Plug-In . SVG Version: 6.00 Build 0)  -->
<svg xmlns="http://www.w3.org/2000/svg" xmlns:xlink="http://www.w3.org/1999/xlink" version="1.1" id="Capa_1" x="0px" y="0px" viewBox="0 0 30.162 30.162" style="enable-background:new 0 0 30.162 30.162;" xml:space="preserve" width="512px" height="512px">
<g>
	<path d="M9.929,21.221c1.669,1.337,3.44,1.899,5.149,1.897l0.002,0.001l0.002-0.001c1.707,0.001,3.482-0.563,5.15-1.897   c8.486-6.813-3.625-12.9-0.314-20.371c-3.147-0.976-6.537-0.957-9.676,0.064C13.462,8.36,1.467,14.428,9.929,21.221z" fill="#000000"/>
	<path d="M25.745,4.283c-1.227-1.227-2.611-2.192-4.088-2.907c-0.959,2.047-0.125,4.144,1.307,7.314   c1.773,3.93,4.201,9.31-1.71,14.057c-1.868,1.498-4.037,2.292-6.276,2.292h-0.002c-2.237,0-4.404-0.794-6.273-2.292   c-5.914-4.745-3.486-10.126-1.71-14.056c1.411-3.129,2.242-5.211,1.345-7.23C6.923,2.166,5.595,3.104,4.417,4.283   c-5.89,5.89-5.888,15.438,0,21.328c5.889,5.889,15.438,5.891,21.328,0C31.635,19.722,31.633,10.173,25.745,4.283z" fill="#000000"/>
	<g>
	</g>
	<g>
	</g>
	<g>
	</g>
	<g>
	</g>
	<g>
	</g>
	<g>
	</g>
	<g>
	</g>
	<g>
	</g>
	<g>
	</g>
	<g>
	</g>
	<g>
	</g>
	<g>
	</g>
	<g>
	</g>
	<g>
	</g>
	<g>
	</g>
</g>
<g>
</g>
<g>
</g>
<g>
</g>
<g>
</g>
<g>
</g>
<g>
</g>
<g>
</g>
<g>
</g>
<g>
</g>
<g>
</g>
<g>
</g>
<g>
</g>
<g>
</g>
<g>
</g>
<g>
</g>
</svg>
