<?xml version="1.0" encoding="iso-8859-1"?>
<!-- Generator: Adobe Illustrator 16.0.0, SVG Export Plug-In . SVG Version: 6.00 Build 0)  -->
<!DOCTYPE svg PUBLIC "-//W3C//DTD SVG 1.1//EN" "http://www.w3.org/Graphics/SVG/1.1/DTD/svg11.dtd">
<svg xmlns="http://www.w3.org/2000/svg" xmlns:xlink="http://www.w3.org/1999/xlink" version="1.1" id="Capa_1" x="0px" y="0px" width="512px" height="512px" viewBox="0 0 259.852 259.852" style="enable-background:new 0 0 259.852 259.852;" xml:space="preserve">
<g>
	<g>
		<path d="M0,129.929c0-29.15,9.752-55.992,26.034-77.702c6.512,8.695,11.923,18.243,16.141,28.409l-11.631,4.876l6.873,16.387    L47.895,97.5c1.979,7.593,3.245,15.471,3.801,23.539H33.978v17.784h17.717c-0.585,8.46-1.987,16.681-4.122,24.613l-10.151-4.252    l-6.873,16.382l11.232,4.708c-4.167,9.775-9.451,18.963-15.748,27.346C9.752,185.917,0,159.077,0,129.929z" fill="#000000"/>
		<path d="M129.926,259.842c-31.714,0-60.763-11.438-83.34-30.359c9.136-11.415,16.651-24.146,22.425-37.789l16.336,6.84    l6.875-16.387l-17.198-7.206c3.423-11.56,5.551-23.646,6.245-36.118h14.18v-17.784h-14.18c-0.676-12.097-2.66-23.821-5.903-35.044    l16.855-7.065l-6.875-16.387l-15.907,6.665c-5.821-14.03-13.49-27.13-22.866-38.824c22.578-18.93,51.638-30.375,83.353-30.375    c28.156,0,54.169,9.095,75.462,24.374c-9.259,12.925-16.669,27.271-21.797,42.631l-10.641-4.465l-6.857,16.387l12.898,5.41    c-2.24,10.565-3.525,21.479-3.525,32.714c0,1.549,0.175,3.05,0.211,4.6h-17.643v17.774h19.18    c1.753,12.22,4.779,24.024,9.139,35.194l-16.507,6.917l6.863,16.394l17.042-7.135c6.581,12.49,14.741,24.068,24.253,34.372    C194.832,246.602,163.938,259.842,129.926,259.842z" fill="#000000"/>
		<path d="M237.514,202.683c-6.281-7.134-11.697-15.024-16.321-23.4l10.316-4.323l-6.869-16.388l-11.049,4.636    c-2.931-7.602-5.104-15.564-6.546-23.779h12.461v-17.773h-14.244c-0.06-1.538-0.222-3.051-0.222-4.6    c0-7.17,0.624-14.205,1.747-21.062l14.094,5.906l6.869-16.387l-16.85-7.068c3.819-12.247,9.409-23.74,16.478-34.161    c20.146,22.896,32.474,52.824,32.474,85.646C259.863,156.878,251.601,181.913,237.514,202.683z" fill="#000000"/>
	</g>
</g>
<g>
</g>
<g>
</g>
<g>
</g>
<g>
</g>
<g>
</g>
<g>
</g>
<g>
</g>
<g>
</g>
<g>
</g>
<g>
</g>
<g>
</g>
<g>
</g>
<g>
</g>
<g>
</g>
<g>
</g>
</svg>
