<?xml version="1.0" encoding="iso-8859-1"?>
<!-- Generator: Adobe Illustrator 18.1.1, SVG Export Plug-In . SVG Version: 6.00 Build 0)  -->
<svg xmlns="http://www.w3.org/2000/svg" xmlns:xlink="http://www.w3.org/1999/xlink" version="1.1" id="Capa_1" x="0px" y="0px" viewBox="0 0 37.883 37.883" style="enable-background:new 0 0 37.883 37.883;" xml:space="preserve" width="512px" height="512px">
<g>
	<g>
		<g>
			<path d="M34.079,23.877l-2.399-0.855l1.256-3.527c-1.021-0.388-2.033-0.864-3.023-1.413l-1.686,2.979     l-2.223-1.256l1.734-3.072c-1.106-0.771-2.176-1.649-3.196-2.628l-2.435,2.414l-1.799-1.811l2.467-2.448     c-0.883-1.029-1.666-2.104-2.35-3.207l-3.265,1.49l-1.057-2.32l3.089-1.412c-0.448-0.924-0.825-1.858-1.136-2.794l-4.191,0.976     l-0.578-2.484l4.115-0.958c-0.092-0.491-0.184-0.986-0.236-1.472C12.928,0.469,8.79,2.295,5.543,5.543     C2.291,8.79,0.467,12.927,0.074,17.167c0.688,0.08,1.382,0.213,2.082,0.372l1.451-4.091l2.405,0.856l-1.409,3.965     c1.005,0.363,2.002,0.8,2.984,1.324l1.882-3.329l2.22,1.255l-1.914,3.387c1.098,0.734,2.158,1.574,3.177,2.511l2.631-2.611     l1.797,1.81l-2.64,2.619c0.889,0.994,1.686,2.03,2.386,3.099l3.4-1.554l1.06,2.32l-3.152,1.443     c0.468,0.913,0.858,1.835,1.19,2.764l4.195-0.977l0.576,2.484l-4.045,0.941c0.157,0.686,0.28,1.371,0.361,2.049     c4.242-0.394,8.385-2.215,11.633-5.465c3.242-3.246,5.071-7.385,5.456-11.627c-0.799-0.093-1.614-0.26-2.436-0.462L34.079,23.877     z" fill="#000000"/>
			<path d="M22.051,0.469l0.574,2.486l-2.27,0.527c0.27,0.788,0.594,1.571,0.975,2.351l2.952-1.346     l1.057,2.32l-2.746,1.255c0.56,0.861,1.173,1.707,1.868,2.526l2.227-2.213l1.801,1.811l-2.271,2.252     c0.863,0.822,1.762,1.572,2.688,2.23l1.519-2.69l2.224,1.252l-1.576,2.799c0.873,0.487,1.763,0.905,2.65,1.25l0.975-2.726     l2.402,0.855l-0.939,2.637c0.578,0.137,1.15,0.25,1.722,0.323c-0.136-4.656-1.981-9.273-5.53-12.828     c-3.56-3.556-8.178-5.394-12.838-5.536c0.043,0.335,0.114,0.676,0.184,1.015L22.051,0.469z" fill="#000000"/>
			<path d="M15.647,36.852l-0.579-2.484l2.254-0.524c-0.296-0.776-0.633-1.551-1.033-2.319l-2.88,1.312     l-1.056-2.323l2.597-1.185c-0.562-0.833-1.186-1.644-1.886-2.427l-2.06,2.045l-1.802-1.81l2.066-2.048     c-0.855-0.785-1.744-1.494-2.66-2.118l-1.341,2.376l-2.223-1.254l1.384-2.453c-0.863-0.458-1.734-0.841-2.612-1.16L3,22.772     l-2.403-0.857l0.769-2.156C0.908,19.66,0.45,19.575,0,19.515c0.149,4.657,1.989,9.273,5.544,12.828     c3.55,3.555,8.167,5.396,12.821,5.536c-0.066-0.524-0.168-1.058-0.286-1.592L15.647,36.852z" fill="#000000"/>
		</g>
	</g>
</g>
<g>
</g>
<g>
</g>
<g>
</g>
<g>
</g>
<g>
</g>
<g>
</g>
<g>
</g>
<g>
</g>
<g>
</g>
<g>
</g>
<g>
</g>
<g>
</g>
<g>
</g>
<g>
</g>
<g>
</g>
</svg>
