<?xml version="1.0" encoding="iso-8859-1"?>
<!-- Generator: Adobe Illustrator 16.0.0, SVG Export Plug-In . SVG Version: 6.00 Build 0)  -->
<!DOCTYPE svg PUBLIC "-//W3C//DTD SVG 1.1//EN" "http://www.w3.org/Graphics/SVG/1.1/DTD/svg11.dtd">
<svg xmlns="http://www.w3.org/2000/svg" xmlns:xlink="http://www.w3.org/1999/xlink" version="1.1" id="Capa_1" x="0px" y="0px" width="512px" height="512px" viewBox="0 0 480.037 480.037" style="enable-background:new 0 0 480.037 480.037;" xml:space="preserve">
<g>
	<g>
		<path d="M72.675,360.506l11.475-15.3l17.212,11.475c7.65-13.387,15.3-26.774,21.038-42.074l-19.125-5.738l5.738-19.125    l19.125,5.738c3.825-15.301,5.737-30.601,7.65-45.9h-19.125v-19.125h19.125c0-15.3-3.825-32.513-7.65-45.9l-19.125,5.737    l-5.738-19.125l19.125-5.737c-5.737-15.3-11.475-28.688-21.038-42.075L84.15,134.831l-11.475-15.3l17.213-11.475    c-7.65-11.475-17.213-21.038-26.775-30.6C24.862,119.531,0,176.906,0,240.019c0,55.463,19.125,107.1,49.725,147.263    c5.737,5.737,13.387,15.3,13.387,15.3c9.562-9.562,19.125-19.125,26.775-28.688L72.675,360.506z" fill="#000000"/>
		<path d="M415.013,77.456c-9.562,9.562-19.125,19.125-26.775,28.688l17.213,11.475l-11.476,17.212l-17.212-11.475    c-7.65,13.388-15.3,26.775-21.038,42.075l19.125,5.737l-5.737,19.125l-19.125-5.737c-1.912,13.387-5.737,30.6-5.737,45.9h19.125    v19.125H344.25c0,15.3,3.825,32.513,7.65,45.9l19.125-5.738l5.737,19.125l-19.125,5.738c5.737,15.3,11.475,28.688,21.037,42.074    l17.213-11.475l11.475,15.3l-17.212,11.476c7.649,9.562,17.212,21.037,26.774,28.688c0,0,7.65-7.65,11.476-13.388    c32.512-40.163,51.637-93.713,51.637-149.175C478.125,176.906,455.175,121.443,415.013,77.456z" fill="#000000"/>
		<path d="M359.55,394.931l-11.475-15.3l15.3-9.562c-9.562-15.3-17.213-30.6-22.95-47.812l-19.125,3.825l-5.737-19.125l17.213-5.737    c-3.825-15.3-7.65-34.425-7.65-51.638H306v-19.125h19.125c0-17.212,3.825-36.337,7.65-51.638l-17.213-5.737l5.737-19.125    l17.213,5.737c5.737-17.212,13.388-32.512,22.95-47.812l-15.301-9.562l11.476-15.3l15.3,9.562    c9.562-11.475,19.125-22.95,28.688-32.513c-42.075-38.25-99.45-63.112-162.562-63.112S118.575,25.818,76.5,64.068    c9.562,9.562,19.125,21.038,28.688,32.513l13.388-9.562l11.475,15.3l-15.3,9.562c9.562,15.3,17.212,30.6,22.95,47.812    l17.212-5.737l5.737,19.125l-17.212,5.737c3.825,17.213,7.65,34.425,7.65,51.638h19.125v19.125h-19.125    c0,17.213-3.825,36.338-7.65,51.638l17.212,5.737l-5.737,19.125l-17.212-5.737c-5.738,17.212-13.388,32.513-22.95,47.812    l15.3,9.562l-11.475,15.3l-13.388-9.562c-9.562,11.475-19.125,22.95-28.688,32.513c42.075,40.162,99.45,63.112,162.562,63.112    s120.487-24.862,162.562-63.112c-9.562-9.562-19.125-21.038-28.688-30.601L359.55,394.931z" fill="#000000"/>
	</g>
</g>
<g>
</g>
<g>
</g>
<g>
</g>
<g>
</g>
<g>
</g>
<g>
</g>
<g>
</g>
<g>
</g>
<g>
</g>
<g>
</g>
<g>
</g>
<g>
</g>
<g>
</g>
<g>
</g>
<g>
</g>
</svg>
