<?xml version="1.0" encoding="iso-8859-1"?>
<!-- Generator: Adobe Illustrator 16.0.0, SVG Export Plug-In . SVG Version: 6.00 Build 0)  -->
<!DOCTYPE svg PUBLIC "-//W3C//DTD SVG 1.1//EN" "http://www.w3.org/Graphics/SVG/1.1/DTD/svg11.dtd">
<svg xmlns="http://www.w3.org/2000/svg" xmlns:xlink="http://www.w3.org/1999/xlink" version="1.1" id="Capa_1" x="0px" y="0px" width="512px" height="512px" viewBox="0 0 878.4 878.4" style="enable-background:new 0 0 878.4 878.4;" xml:space="preserve">
<g>
	<g>
		<path d="M878.4,464.25H464.2v66c40.7,2.699,80.3,12.1,117.9,28c43.699,18.5,83,45,116.699,78.699    c28.101,28.101,51.101,60,68.7,95.101C831.7,660.05,872.601,566.85,878.4,464.25z" fill="#000000"/>
		<path d="M730.4,109.65c-71.7-63.5-164.3-103.8-266.2-109.6v299.8c75.3-5.8,145.3-37.9,199.2-91.9    C692.2,179.25,714.7,145.85,730.4,109.65z" fill="#000000"/>
		<path d="M414.2,414.25v-64.2c-40.7-2.7-80.3-12.1-117.9-28c-43.699-18.5-83-45-116.7-78.7c-28.4-28.4-51.6-60.7-69.2-96.2    C46.5,218.95,5.8,311.95,0,414.25H414.2z" fill="#000000"/>
		<path d="M110.9,732.05c17.6-35.101,40.6-67.101,68.7-95.101c33.7-33.699,73-60.199,116.7-78.699c37.601-15.9,77.2-25.301,117.9-28    v-66H0C5.8,566.85,46.7,660.05,110.9,732.05z" fill="#000000"/>
		<path d="M464.2,414.25h414.2c-5.7-102.3-46.4-195.3-110.3-267.2c-17.7,35.6-40.9,67.9-69.2,96.2c-33.7,33.7-73,60.2-116.7,78.7    c-37.6,15.9-77.2,25.3-117.9,28v64.301H464.2z" fill="#000000"/>
		<path d="M663.4,672.25c-54-54-123.9-86.101-199.2-91.9v298c101.6-5.7,194-45.9,265.7-109C714.2,733.65,691.9,700.75,663.4,672.25z    " fill="#000000"/>
		<path d="M215,207.95c54,54,123.9,86.1,199.2,91.9V0.05c-101.9,5.8-194.5,46.1-266.2,109.6C163.7,145.85,186.2,179.25,215,207.95z" fill="#000000"/>
		<path d="M414.2,580.35c-75.3,5.8-145.3,37.9-199.2,91.9c-28.4,28.399-50.8,61.3-66.5,97.1c71.7,63.2,164.101,103.3,265.7,109    V580.35z" fill="#000000"/>
	</g>
</g>
<g>
</g>
<g>
</g>
<g>
</g>
<g>
</g>
<g>
</g>
<g>
</g>
<g>
</g>
<g>
</g>
<g>
</g>
<g>
</g>
<g>
</g>
<g>
</g>
<g>
</g>
<g>
</g>
<g>
</g>
</svg>
