<?xml version="1.0" encoding="iso-8859-1"?>
<!-- Generator: Adobe Illustrator 16.0.0, SVG Export Plug-In . SVG Version: 6.00 Build 0)  -->
<!DOCTYPE svg PUBLIC "-//W3C//DTD SVG 1.1//EN" "http://www.w3.org/Graphics/SVG/1.1/DTD/svg11.dtd">
<svg xmlns="http://www.w3.org/2000/svg" xmlns:xlink="http://www.w3.org/1999/xlink" version="1.1" id="Capa_1" x="0px" y="0px" width="512px" height="512px" viewBox="0 0 401.677 401.676" style="enable-background:new 0 0 401.677 401.676;" xml:space="preserve">
<g>
	<path d="M333.539,50.13l-75.598,72.632c-31.57-36.771-53.558-80.31-61.809-122.708C245.211-1.08,294.527,15.708,333.539,50.13z    M162.747,3.651c9.045,49.449,34.378,100.16,70.994,142.36l-32.443,31.171L74.246,44.942   C100.631,23.477,131.105,9.734,162.747,3.651z M50.104,68.139l127.051,132.24l-34.051,32.716   c-40.459-38.07-89.558-65.212-138.229-76.372C12.057,124.691,27.166,94.134,50.104,68.139z M0.29,190.047   c41.107,10.134,83.791,33.987,118.63,66.282l-74.006,71.102C12.506,287.597-2.305,238.425,0.29,190.047z M68.109,351.574   l73.97-71.068c30.836,36.07,52.979,79.685,61.464,121.153C155.12,402.305,106.6,385.538,68.109,351.574z M237.08,398.411   c-9.222-49.073-34.416-99.27-70.782-141.173l34.055-32.716l127.05,132.239C300.512,378.641,269.373,392.516,237.08,398.411z    M351.546,333.57L224.494,201.329l32.442-31.171c40.781,38.374,90.349,65.653,139.403,76.644   C388.999,278.17,374.05,308.068,351.546,333.57z M281.117,146.923l75.617-72.649c32.834,40.354,47.634,90.298,44.541,139.288   C359.699,203.648,316.388,179.616,281.117,146.923z" fill="#000000"/>
</g>
<g>
</g>
<g>
</g>
<g>
</g>
<g>
</g>
<g>
</g>
<g>
</g>
<g>
</g>
<g>
</g>
<g>
</g>
<g>
</g>
<g>
</g>
<g>
</g>
<g>
</g>
<g>
</g>
<g>
</g>
</svg>
