<?xml version="1.0" encoding="iso-8859-1"?>
<!-- Generator: Adobe Illustrator 16.0.0, SVG Export Plug-In . SVG Version: 6.00 Build 0)  -->
<!DOCTYPE svg PUBLIC "-//W3C//DTD SVG 1.1//EN" "http://www.w3.org/Graphics/SVG/1.1/DTD/svg11.dtd">
<svg xmlns="http://www.w3.org/2000/svg" xmlns:xlink="http://www.w3.org/1999/xlink" version="1.1" id="Capa_1" x="0px" y="0px" width="512px" height="512px" viewBox="0 0 480.037 480.037" style="enable-background:new 0 0 480.037 480.037;" xml:space="preserve">
<g>
	<g>
		<path d="M229.5,48.769c0-17.212-1.913-32.513-5.737-47.812C158.737,4.781,103.275,33.469,61.2,79.369    c55.462,5.737,107.1,21.038,153,47.812C223.763,102.318,229.5,75.543,229.5,48.769z" fill="#000000"/>
		<path d="M206.55,144.394c-45.9-26.775-101.362-43.987-158.737-47.812C17.212,136.744,0,186.469,0,240.019    c0,9.562,0,19.125,1.913,28.688c0,0,5.737,0,7.65,0C95.625,268.706,172.125,218.981,206.55,144.394z" fill="#000000"/>
		<path d="M330.862,232.368c38.25-32.512,86.062-53.55,137.7-57.375C439.875,75.543,349.987,2.869,244.8,0.956    c1.913,15.3,3.825,30.6,3.825,47.812c0,30.6-5.737,61.2-17.213,87.975C269.662,161.606,304.088,194.119,330.862,232.368z" fill="#000000"/>
		<path d="M317.475,245.756c-24.862-34.425-57.375-65.025-93.712-89.887c-38.25,78.413-120.488,131.962-214.2,131.962    c-1.913,0-3.825,0-5.737,0c22.95,109.013,118.575,191.25,235.237,191.25c5.737,0,13.388,0,19.125,0    c-5.737-21.037-9.562-43.987-9.562-66.938C248.625,347.118,275.4,287.831,317.475,245.756z" fill="#000000"/>
		<path d="M267.75,412.144c0,22.95,3.825,43.987,9.562,63.112c38.25-5.737,74.588-21.037,105.188-43.987    c-3.825-63.112-22.95-120.487-53.55-170.213C290.7,301.219,267.75,352.856,267.75,412.144z" fill="#000000"/>
		<path d="M474.3,192.206c-49.725,3.825-95.625,22.95-131.962,55.463c32.512,49.725,53.55,107.1,59.287,168.3    c47.812-43.987,78.412-107.101,78.412-175.95C478.125,222.806,476.213,207.506,474.3,192.206z" fill="#000000"/>
	</g>
</g>
<g>
</g>
<g>
</g>
<g>
</g>
<g>
</g>
<g>
</g>
<g>
</g>
<g>
</g>
<g>
</g>
<g>
</g>
<g>
</g>
<g>
</g>
<g>
</g>
<g>
</g>
<g>
</g>
<g>
</g>
</svg>
