<?xml version="1.0" encoding="iso-8859-1"?>
<!-- Generator: Adobe Illustrator 18.0.0, SVG Export Plug-In . SVG Version: 6.00 Build 0)  -->
<!DOCTYPE svg PUBLIC "-//W3C//DTD SVG 1.1//EN" "http://www.w3.org/Graphics/SVG/1.1/DTD/svg11.dtd">
<svg xmlns="http://www.w3.org/2000/svg" xmlns:xlink="http://www.w3.org/1999/xlink" version="1.1" id="Capa_1" x="0px" y="0px" viewBox="0 0 203.357 203.357" style="enable-background:new 0 0 203.357 203.357;" xml:space="preserve" width="512px" height="512px">
<g>
	<path d="M21.632,149.888c-4.142,0-7.5,3.358-7.5,7.5s3.358,7.5,7.5,7.5h160.094c4.142,0,7.5-3.358,7.5-7.5s-3.358-7.5-7.5-7.5   h-16.547V88.429l16.547,0c3.297,0,6.208-2.154,7.172-5.307c0.964-3.153-0.245-6.566-2.978-8.411l-80.047-53.997   c-2.535-1.71-5.854-1.71-8.389,0L17.438,74.712c-2.733,1.844-3.942,5.257-2.978,8.411c0.964,3.153,3.875,5.307,7.172,5.307   l16.547,0v61.459H21.632z M112.845,88.43v61.459H90.512V88.43L112.845,88.43z M150.179,149.888h-22.333V88.43l22.333,0V149.888z    M101.679,35.979l55.518,37.45l-111.035,0L101.679,35.979z M53.179,88.43l22.333,0v61.459H53.179V88.43z" fill="#000000"/>
	<path d="M198.357,173.925H5c-2.761,0-5,2.239-5,5s2.239,5,5,5h193.357c2.761,0,5-2.239,5-5S201.119,173.925,198.357,173.925z" fill="#000000"/>
</g>
<g>
</g>
<g>
</g>
<g>
</g>
<g>
</g>
<g>
</g>
<g>
</g>
<g>
</g>
<g>
</g>
<g>
</g>
<g>
</g>
<g>
</g>
<g>
</g>
<g>
</g>
<g>
</g>
<g>
</g>
</svg>
