<?xml version="1.0" encoding="iso-8859-1"?>
<!-- Generator: Adobe Illustrator 18.0.0, SVG Export Plug-In . SVG Version: 6.00 Build 0)  -->
<!DOCTYPE svg PUBLIC "-//W3C//DTD SVG 1.1//EN" "http://www.w3.org/Graphics/SVG/1.1/DTD/svg11.dtd">
<svg xmlns="http://www.w3.org/2000/svg" xmlns:xlink="http://www.w3.org/1999/xlink" version="1.1" id="Capa_1" x="0px" y="0px" viewBox="0 0 217.25 217.25" style="enable-background:new 0 0 217.25 217.25;" xml:space="preserve" width="512px" height="512px">
<g>
	<path d="M41.555,90.995h134.14c4.143,0,7.5-3.357,7.5-7.5s-3.357-7.5-7.5-7.5h-6.391c-3.409-27.734-25.446-49.771-53.18-53.18V7.5   c0-4.143-3.357-7.5-7.5-7.5c-4.142,0-7.5,3.357-7.5,7.5v15.315c-27.734,3.409-49.771,25.445-53.18,53.18h-6.391   c-4.142,0-7.5,3.357-7.5,7.5S37.413,90.995,41.555,90.995z M108.626,37.339c22.896,0,41.943,16.762,45.537,38.656H63.088   C66.682,54.101,85.729,37.339,108.626,37.339z" fill="#000000"/>
	<path d="M186.09,202.25h-6.881v-47.561h6.881c4.143,0,7.5-3.357,7.5-7.5c0-4.143-3.357-7.5-7.5-7.5h-16.309v-23.883h5.914   c4.143,0,7.5-3.357,7.5-7.5c0-4.143-3.357-7.5-7.5-7.5H41.555c-4.142,0-7.5,3.357-7.5,7.5c0,4.143,3.358,7.5,7.5,7.5h5.914v23.883   H31.16c-4.142,0-7.5,3.357-7.5,7.5c0,4.143,3.358,7.5,7.5,7.5h6.88v47.561h-6.88c-4.142,0-7.5,3.357-7.5,7.5s3.358,7.5,7.5,7.5   h154.93c4.143,0,7.5-3.357,7.5-7.5S190.233,202.25,186.09,202.25z M164.209,202.25h-16.543v-47.561h16.543V202.25z    M127.953,139.689h-11.828v-23.883h11.828V139.689z M101.126,139.689H89.298v-23.883h11.828V139.689z M84.584,154.689h16.542   v47.561H84.584V154.689z M116.125,154.689h16.541v47.561h-16.541V154.689z M154.782,139.689h-11.828v-23.883h11.828V139.689z    M62.469,115.807h11.828v23.883H62.469V115.807z M53.04,154.689h16.543v47.561H53.04V154.689z" fill="#000000"/>
</g>
<g>
</g>
<g>
</g>
<g>
</g>
<g>
</g>
<g>
</g>
<g>
</g>
<g>
</g>
<g>
</g>
<g>
</g>
<g>
</g>
<g>
</g>
<g>
</g>
<g>
</g>
<g>
</g>
<g>
</g>
</svg>
