<?xml version="1.0" encoding="iso-8859-1"?>
<!-- Generator: Adobe Illustrator 16.0.0, SVG Export Plug-In . SVG Version: 6.00 Build 0)  -->
<!DOCTYPE svg PUBLIC "-//W3C//DTD SVG 1.1//EN" "http://www.w3.org/Graphics/SVG/1.1/DTD/svg11.dtd">
<svg xmlns="http://www.w3.org/2000/svg" xmlns:xlink="http://www.w3.org/1999/xlink" version="1.1" id="Capa_1" x="0px" y="0px" width="512px" height="512px" viewBox="0 0 480.043 480.043" style="enable-background:new 0 0 480.043 480.043;" xml:space="preserve">
<g>
	<polygon points="325.412,210.468 325.412,196.25 352.847,196.25 352.847,189.604 259.525,126.398 259.525,81.597 299.517,81.597    299.517,43.256 259.525,43.256 259.525,0 240.354,0 239.688,0 220.518,0 220.518,43.256 180.526,43.256 180.526,81.597    220.518,81.597 220.518,126.398 127.196,189.604 127.196,196.25 154.63,196.25 154.63,210.468 3.771,283.643 3.771,289.658    35.455,289.717 35.455,480.043 199.19,480.043 199.19,370.241 239.688,370.241 240.354,370.241 280.853,370.241 280.853,480.043    444.589,480.043 444.589,289.717 476.271,289.658 476.271,283.643  " fill="#000000"/>
</g>
<g>
</g>
<g>
</g>
<g>
</g>
<g>
</g>
<g>
</g>
<g>
</g>
<g>
</g>
<g>
</g>
<g>
</g>
<g>
</g>
<g>
</g>
<g>
</g>
<g>
</g>
<g>
</g>
<g>
</g>
</svg>
