<?xml version="1.0" encoding="iso-8859-1"?>
<!-- Generator: Adobe Illustrator 18.0.0, SVG Export Plug-In . SVG Version: 6.00 Build 0)  -->
<!DOCTYPE svg PUBLIC "-//W3C//DTD SVG 1.1//EN" "http://www.w3.org/Graphics/SVG/1.1/DTD/svg11.dtd">
<svg xmlns="http://www.w3.org/2000/svg" xmlns:xlink="http://www.w3.org/1999/xlink" version="1.1" id="Capa_1" x="0px" y="0px" viewBox="0 0 488.027 488.027" style="enable-background:new 0 0 488.027 488.027;" xml:space="preserve" width="512px" height="512px">
<g>
	<path d="M352.178,219.681c16.073,0,29.102-14.909,29.102-33.292c0-18.391-13.029-33.299-29.102-33.299   c-16.067,0-29.096,14.909-29.096,33.299C323.082,204.772,336.11,219.681,352.178,219.681z" fill="#000000"/>
	<path d="M400.179,363.223c0-4.696-3.801-8.497-8.49-8.497c-4.698,0-8.498,3.801-8.498,8.497c0,0.366,0.159,0.675,0.207,1.024   h16.576C400.02,363.898,400.179,363.589,400.179,363.223z" fill="#000000"/>
	<path d="M212.505,201.074c-6.324,5.713-14.195,9.775-22.994,11.529c-3.157,0.635-6.372,0.952-9.569,0.952   c-12.305,0-23.747-4.657-32.441-12.433c-7.475,6.705-17.044,11.122-27.659,12.187c-1.649,0.165-3.292,0.237-4.896,0.237   c-12.44,0-23.826-4.618-32.457-12.322c-8.593,7.689-19.97,12.322-32.506,12.322c-12.583,0-24.001-4.666-32.608-12.41   c-2.436,2.174-5.11,4.111-7.981,5.785l-8.157,4.728v276.377h201.289c23.446,0,42.447-19.001,42.447-42.447V213.555   c0,0-0.008,0-0.016,0C232.752,213.555,221.256,208.89,212.505,201.074z M118.312,416.954c-6.958,0-13.56-1.34-19.733-3.586   c28.562-15.679,41.861-57.419,35.663-80.856c-17.199,44.717-42.987,83.681-90.837,86.728c-0.047,0-0.094,0.008-0.151,0.008   c-1.159,0-2.166-0.809-2.412-1.943c-0.262-1.199,0.389-2.396,1.524-2.825c13.25-5.021,22.428-13.289,28.761-21.708   c-7.029-9.655-11.306-21.445-11.306-34.307c0-32.157,40.59-49.208,51.269-61.53c17.495-20.176,16.845-36.646,13.386-46.763   c-0.603-1.753-0.048-3.705,1.396-4.871c0.817-0.667,1.809-1.008,2.81-1.008c0.776,0,1.555,0.207,2.252,0.619   c17.732,10.441,47.891,38.14,47.891,105.706C178.824,382.924,160.591,416.954,118.312,416.954z" fill="#000000"/>
	<path d="M78.791,61.14c0-4.965-3.799-7.601-10.528-7.601c-3.214,0-5.061,0.198-6.331,0.39v15.305h4.871   C74.602,69.234,78.791,66.012,78.791,61.14z" fill="#000000"/>
	<path d="M162.44,53.929c-10.037,0-15.883,9.553-15.883,22.318c0,12.861,6.044,21.921,15.979,21.921   c10.036,0,15.788-9.553,15.788-22.31C178.324,64.068,172.668,53.929,162.44,53.929z" fill="#000000"/>
	<path d="M67.002,79.85h-5.07v18.517c1.459,0.192,3.212,0.192,5.752,0.192c6.719,0,12.663-2.532,12.663-9.45   C80.347,82.483,74.403,79.85,67.002,79.85z" fill="#000000"/>
	<path d="M238.696,30.301C233.324,12.322,216.789,0,198.024,0H1.235v119.377v30.206h273.1L238.696,30.301z M89.122,103.628   c-4.777,3.799-12.767,5.942-25.826,5.942c-3.785,0-7.077-0.127-9.829-0.325c-3.523-0.247-6.245-3.173-6.245-6.704V49.985   c0-3.476,2.65-6.387,6.116-6.696c3.856-0.341,8.562-0.564,13.076-0.564c9.06,0,14.614,0.881,19.392,3.705   c4.577,2.436,7.894,6.919,7.894,12.861c0,5.848-3.411,11.299-10.813,14.027v0.198c7.497,2.048,13.051,7.697,13.051,16.178   C95.937,95.639,93.208,100.312,89.122,103.628z M121.017,101.43c0,4.117-3.341,7.458-7.45,7.458c-4.117,0-7.458-3.341-7.458-7.458   V50.668c0-4.118,3.341-7.458,7.458-7.458c4.109,0,7.45,3.341,7.45,7.458V101.43z M161.758,109.959   c-19.486,0-30.888-14.71-30.888-33.418c0-19.686,12.569-34.403,31.959-34.403c20.168,0,31.182,15.107,31.182,33.228   C194.011,96.9,180.952,109.959,161.758,109.959z" fill="#000000"/>
	<path d="M17.325,168.022l0.214-2.19H1.235v27.032C9.962,187.8,16.246,178.828,17.325,168.022z" fill="#000000"/>
	<path d="M49.982,197.298c17.598,0,31.832-14.003,32.388-31.466H17.595C18.15,183.294,32.385,197.298,49.982,197.298z" fill="#000000"/>
	<path d="M82.425,165.832l0.214,2.19c1.666,16.764,15.804,29.276,32.307,29.276c1.064,0,2.16-0.047,3.253-0.16   c15.949-1.586,27.976-14.479,29.118-29.934l0.778,3.942c3.078,15.464,16.662,26.16,31.847,26.16c2.096,0,4.238-0.207,6.379-0.636   c14.234-2.84,24.279-14.598,25.802-28.301l1.714,5.729c4.205,14.099,17.122,23.207,31.117,23.207c3.079,0,6.22-0.444,9.315-1.365   c13.75-4.109,22.604-16.519,23.04-30.109H82.425z" fill="#000000"/>
	<path d="M484.978,375.204c-1.403-1.633-3.459-2.579-5.617-2.579h-45.114v-8.378h9.069h23.921c0.001-0.002,0.002-0.005,0.003-0.008   h0.133c2.055-2.305,3.315-5.333,3.315-8.664c0-2.543-0.739-4.908-1.998-6.913c5.408-3.214,10.565-5.815,13.94-7.407   c2.395-1.127,3.927-3.539,3.927-6.189v-5.053c0-2.342-1.199-4.515-3.173-5.768c-1.976-1.261-4.452-1.42-6.569-0.429   c-7.313,3.414-14.469,11.175-20.237,18.778c-1.764,0.144-3.426,0.637-4.921,1.414c-1.405-4.469-5.431-7.782-10.379-7.782   c-2.713,0-5.11,1.087-7.031,2.705v-6.974c0.445-0.223,0.921-0.342,1.342-0.619c6.441-4.245,8.227-12.908,3.991-19.352   l-48.898-74.294c-3.286-4.975-8.337-5.834-14.655-5.888h-48.612c-6.67-0.331-12.258,2.039-14.844,7.926l-37.727,85.467   c-3.11,7.061,0.088,15.305,7.14,18.423c1.832,0.809,3.753,1.189,5.633,1.189c5.364,0,10.481-3.11,12.789-8.331l5.332-12.083   l-10.457,50.341c-0.643,3.079,0.143,6.277,2.119,8.713c1.982,2.436,4.957,3.848,8.1,3.848h9.798v83.967   c0,9.259,7.505,16.764,16.766,16.764c9.259,0,16.764-7.505,16.764-16.764v-83.967h6.704v83.967c0,9.259,7.506,16.764,16.764,16.764   c9.261,0,16.766-7.505,16.766-16.764V426.3c-14.003-10.346-24.112-25.818-26.746-43.963c-0.658-4.547,0.683-9.148,3.681-12.622   c2.628-3.032,6.313-4.761,10.263-5.181c-0.051-0.501-0.082-1.009-0.082-1.525c0-8.48,6.874-15.355,15.354-15.355   c1.875,0,3.664,0.353,5.325,0.968c1.414-2.366,3.297-4.332,5.56-5.924l-11.037-53.12l24.856,37.766   c1.69,2.563,4.166,4.095,6.839,5.094v9.457v11.457c-1.833-3.561-5.441-6.077-9.734-6.077c-4.315,0-8.051,2.476-9.874,6.082   c2.135,2.638,3.419,5.993,3.419,9.651c0,0.418-0.024,0.829-0.059,1.238h15.622h0.626v8.378h-45.112   c-2.158,0-4.213,0.938-5.625,2.572c-1.412,1.633-2.04,3.799-1.73,5.934c4.119,28.372,28.54,50.167,58.054,50.167   c29.515,0,53.936-21.795,58.053-50.167C487.025,378.997,486.39,376.838,484.978,375.204z" fill="#000000"/>
</g>
<g>
</g>
<g>
</g>
<g>
</g>
<g>
</g>
<g>
</g>
<g>
</g>
<g>
</g>
<g>
</g>
<g>
</g>
<g>
</g>
<g>
</g>
<g>
</g>
<g>
</g>
<g>
</g>
<g>
</g>
</svg>
