<?xml version="1.0" encoding="iso-8859-1"?>
<!-- Generator: Adobe Illustrator 16.0.0, SVG Export Plug-In . SVG Version: 6.00 Build 0)  -->
<!DOCTYPE svg PUBLIC "-//W3C//DTD SVG 1.1//EN" "http://www.w3.org/Graphics/SVG/1.1/DTD/svg11.dtd">
<svg xmlns="http://www.w3.org/2000/svg" xmlns:xlink="http://www.w3.org/1999/xlink" version="1.1" id="Capa_1" x="0px" y="0px" width="512px" height="512px" viewBox="0 0 458.856 458.856" style="enable-background:new 0 0 458.856 458.856;" xml:space="preserve">
<g>
	<g>
		<polygon points="327.475,267.791 389.92,192.795 240.552,192.795 240.552,159.293 253.428,159.293 253.428,145.293     205.428,145.293 205.428,159.293 218.303,159.293 218.303,192.795 68.936,192.795 131.381,267.791 181.628,267.791     181.628,383.86 131.381,383.86 68.936,458.856 389.92,458.856 327.475,383.86 277.228,383.86 277.228,267.791   " fill="#000000"/>
		<path d="M410.214,94.591c-0.003-0.001-1.339-0.823-5.812-0.823c-3.458,0-7.211,0.481-10.438,1.05    c1.626,8.654,4.094,14.346,5.463,15.298c1.593,1.105,3.452,1.69,5.378,1.69c3.103,0,6.011-1.518,7.778-4.06    C415.556,103.468,414.494,97.567,410.214,94.591z" fill="#000000"/>
		<path d="M345.892,76.491c6.803,6.489,12.632,9.976,14.924,9.997l0.077-0.002c2.753-0.083,5.343-1.249,7.256-3.281    c1.913-2.033,2.92-4.69,2.836-7.48c-0.177-5.804-4.922-10.313-10.756-10.13C357.993,65.663,352.213,69.708,345.892,76.491z" fill="#000000"/>
		<path d="M294.616,90.563c4.094,1.188,10.255,2.688,15.229,2.688c3.014,0,4.177-0.578,4.38-0.694    c2.654-1.519,4.56-3.98,5.362-6.932c0.802-2.951,0.408-6.039-1.111-8.694c-2.035-3.557-5.851-5.767-9.956-5.767    c-1.977,0-3.938,0.524-5.67,1.516C300.295,74.14,296.926,81.52,294.616,90.563z" fill="#000000"/>
		<path d="M251.753,95.273c-3.338,3.082-4.654,14.053-4.687,22.617c1.959,0.147,4.438,0.276,7.083,0.276    c11.566,0,15.062-2.398,15.857-3.134c2.64-2.438,4.171-5.757,4.312-9.347c0.144-3.591-1.122-7.021-3.561-9.659    c-2.576-2.789-6.087-4.325-9.887-4.325C257.485,91.701,254.245,92.97,251.753,95.273z" fill="#000000"/>
		<path d="M48.642,94.591c-4.279,2.976-5.342,8.877-2.368,13.155c1.768,2.542,4.676,4.06,7.778,4.06c1.926,0,3.785-0.585,5.378-1.69    c1.369-0.952,3.837-6.644,5.463-15.298c-3.229-0.568-6.981-1.05-10.439-1.05C49.981,93.768,48.645,94.59,48.642,94.591z" fill="#000000"/>
		<path d="M97.963,86.487l0.077,0.002c2.292-0.021,8.121-3.508,14.924-9.997c-6.321-6.783-12.101-10.828-14.337-10.896    c-5.834-0.183-10.579,4.326-10.756,10.13c-0.084,2.79,0.923,5.447,2.836,7.48C92.62,85.238,95.21,86.404,97.963,86.487z" fill="#000000"/>
		<path d="M144.631,92.555c0.203,0.116,1.366,0.694,4.38,0.694c4.976,0,11.137-1.5,15.229-2.687    c-2.311-9.043-5.68-16.423-8.234-17.885c-1.732-0.991-3.693-1.516-5.67-1.516c-4.105,0-7.921,2.21-9.956,5.767    c-1.52,2.655-1.913,5.743-1.111,8.694C140.073,88.574,141.977,91.036,144.631,92.555z" fill="#000000"/>
		<path d="M204.705,118.167c2.646,0,5.124-0.129,7.083-0.276c-0.031-8.564-1.349-19.535-4.686-22.617    c-2.492-2.303-5.731-3.571-9.121-3.571c-3.799,0-7.31,1.536-9.886,4.325c-2.438,2.639-3.703,6.068-3.561,9.659    c0.142,3.59,1.673,6.909,4.313,9.347C189.644,115.768,193.139,118.167,204.705,118.167z" fill="#000000"/>
		<path d="M399.453,30.063c1.97-4.823-0.354-10.351-5.18-12.322c-0.003,0-1.485-0.512-5.851,0.463    c-3.375,0.754-6.934,2.042-9.959,3.301c3.473,8.092,7.122,13.108,8.666,13.739c1.795,0.731,3.738,0.897,5.617,0.478    C395.773,35.045,398.281,32.93,399.453,30.063z" fill="#000000"/>
		<path d="M344.297,20.6l0.075-0.019c2.668-0.682,4.941-2.384,6.365-4.784c1.425-2.401,1.828-5.214,1.138-7.919    c-1.438-5.625-7.05-8.991-12.706-7.542c-2.167,0.555-6.925,5.762-11.617,13.76C335.606,18.947,342.055,21.078,344.297,20.6z" fill="#000000"/>
		<path d="M296.025,38.308c2.941-0.657,3.95-1.475,4.123-1.632c2.261-2.061,3.582-4.879,3.723-7.935    c0.14-3.055-0.918-5.982-2.979-8.243c-2.762-3.027-6.967-4.353-10.974-3.457c-1.93,0.43-3.729,1.369-5.203,2.715    c-2.175,1.983-3.855,9.92-4.14,19.249C284.829,39.272,291.169,39.393,296.025,38.308z" fill="#000000"/>
		<path d="M247.1,74.765c11.289-2.521,14.177-5.623,14.793-6.515c2.045-2.954,2.814-6.527,2.171-10.063    c-0.644-3.535-2.625-6.606-5.58-8.65c-3.122-2.16-6.883-2.895-10.591-2.066c-3.308,0.739-6.193,2.683-8.124,5.474    c-2.584,3.735-1.479,14.729,0.355,23.095C242.072,75.756,244.518,75.342,247.1,74.765z" fill="#000000"/>
		<path d="M80.393,21.504c-3.026-1.259-6.584-2.547-9.959-3.301c-4.365-0.975-5.849-0.463-5.851-0.463    c-4.825,1.972-7.148,7.499-5.179,12.322c1.172,2.867,3.679,4.982,6.706,5.658c1.88,0.42,3.823,0.254,5.617-0.478    C73.271,34.613,76.92,29.596,80.393,21.504z" fill="#000000"/>
		<path d="M114.484,20.581l0.075,0.019c2.242,0.479,8.691-1.653,16.745-6.504c-4.692-7.998-9.45-13.205-11.617-13.76    c-5.654-1.449-11.268,1.917-12.705,7.542c-0.69,2.705-0.288,5.518,1.137,7.919C109.542,18.198,111.816,19.9,114.484,20.581z" fill="#000000"/>
		<path d="M162.831,38.308c4.856,1.085,11.196,0.964,15.449,0.697c-0.284-9.329-1.964-17.266-4.139-19.249    c-1.475-1.346-3.274-2.285-5.203-2.715c-4.007-0.896-8.212,0.43-10.974,3.457c-2.062,2.261-3.119,5.188-2.979,8.243    c0.141,3.056,1.463,5.874,3.723,7.935C158.881,36.833,159.89,37.651,162.831,38.308z" fill="#000000"/>
		<path d="M211.756,74.765c2.582,0.577,5.029,0.991,6.973,1.274c1.836-8.365,2.941-19.359,0.356-23.095    c-1.93-2.791-4.816-4.734-8.124-5.474c-3.708-0.828-7.469-0.094-10.591,2.066c-2.955,2.044-4.936,5.115-5.58,8.65    c-0.645,3.535,0.126,7.108,2.171,10.063C197.578,69.142,200.467,72.244,211.756,74.765z" fill="#000000"/>
	</g>
</g>
<g>
</g>
<g>
</g>
<g>
</g>
<g>
</g>
<g>
</g>
<g>
</g>
<g>
</g>
<g>
</g>
<g>
</g>
<g>
</g>
<g>
</g>
<g>
</g>
<g>
</g>
<g>
</g>
<g>
</g>
</svg>
