<?xml version="1.0" encoding="iso-8859-1"?>
<!-- Generator: Adobe Illustrator 17.1.0, SVG Export Plug-In . SVG Version: 6.00 Build 0)  -->
<!DOCTYPE svg PUBLIC "-//W3C//DTD SVG 1.1//EN" "http://www.w3.org/Graphics/SVG/1.1/DTD/svg11.dtd">
<svg xmlns="http://www.w3.org/2000/svg" xmlns:xlink="http://www.w3.org/1999/xlink" version="1.1" id="Capa_1" x="0px" y="0px" viewBox="0 0 297.407 297.407" style="enable-background:new 0 0 297.407 297.407;" xml:space="preserve" width="512px" height="512px">
<g>
	<path d="M4.281,77.15c-5.708,5.708-5.709,14.977,0,20.686c8.571,8.571,31.113,10.428,31.113,10.428S33.538,85.721,24.967,77.15   C19.258,71.441,9.989,71.442,4.281,77.15z" fill="#000000"/>
	<path d="M45.281,70.15c-5.708,5.708-5.709,14.977,0,20.686c8.571,8.571,31.113,10.428,31.113,10.428S74.538,78.721,65.967,70.15   C60.258,64.441,50.989,64.442,45.281,70.15z" fill="#000000"/>
	<path d="M4.281,34.15c-5.708,5.708-5.709,14.977,0,20.686c8.571,8.571,31.113,10.428,31.113,10.428S33.538,42.721,24.967,34.15   C19.258,28.441,9.989,28.442,4.281,34.15z" fill="#000000"/>
	<path d="M272.44,77.15c-8.571,8.571-10.428,31.113-10.428,31.113s22.542-1.856,31.113-10.428c5.709-5.709,5.708-14.978,0-20.686   C287.417,71.442,278.149,71.441,272.44,77.15z" fill="#000000"/>
	<path d="M231.44,70.15c-8.571,8.571-10.428,31.113-10.428,31.113s22.542-1.856,31.113-10.428c5.709-5.709,5.708-14.978,0-20.686   S237.149,64.441,231.44,70.15z" fill="#000000"/>
	<path d="M293.125,34.15c-5.708-5.708-14.977-5.709-20.686,0c-8.571,8.571-10.428,31.113-10.428,31.113s22.542-1.856,31.113-10.428   C298.834,49.126,298.833,39.858,293.125,34.15z" fill="#000000"/>
	<path d="M90.536,225.538c-6.903,0-12.5,5.597-12.5,12.5s5.597,12.5,12.5,12.5h14.667v-25H90.536z" fill="#000000"/>
	<path d="M205.536,225.538h-14.333v25h14.333c6.903,0,12.5-5.597,12.5-12.5S212.44,225.538,205.536,225.538z" fill="#000000"/>
	<path d="M120.19,220.678c-0.012,0.231,0.013,0.46,0.013,0.694v46.166h56v-46.166c0-0.459-0.067-0.912-0.112-1.359l11.793-11.802   l10.813-10.812l12.576-77.861H84.623l12.351,77.839l11.202,11.241L120.19,220.678z" fill="#000000"/>
</g>
<g>
</g>
<g>
</g>
<g>
</g>
<g>
</g>
<g>
</g>
<g>
</g>
<g>
</g>
<g>
</g>
<g>
</g>
<g>
</g>
<g>
</g>
<g>
</g>
<g>
</g>
<g>
</g>
<g>
</g>
</svg>
