<?xml version="1.0" encoding="iso-8859-1"?>
<!-- Generator: Adobe Illustrator 18.0.0, SVG Export Plug-In . SVG Version: 6.00 Build 0)  -->
<!DOCTYPE svg PUBLIC "-//W3C//DTD SVG 1.1//EN" "http://www.w3.org/Graphics/SVG/1.1/DTD/svg11.dtd">
<svg xmlns="http://www.w3.org/2000/svg" xmlns:xlink="http://www.w3.org/1999/xlink" version="1.1" id="Capa_1" x="0px" y="0px" viewBox="0 0 493.949 493.949" style="enable-background:new 0 0 493.949 493.949;" xml:space="preserve" width="512px" height="512px">
<g>
	<path d="M155.207,386.008c-8.936,10.841-9.838,24.83-2.032,31.266c7.805,6.422,24.293,4.713,30.295-7.979   c13.435-28.436,31.543-26.933,23.731-33.362C199.395,369.513,164.128,375.166,155.207,386.008z" fill="#000000"/>
	<path d="M125.363,350.226c10.059-5.591,11.925-21.431,4.167-35.396c-7.758-13.957-46.046-27.542-56.104-21.967   c-10.06,5.591,10.508,7.631,19.689,42.21C97.211,350.51,115.304,355.809,125.363,350.226z" fill="#000000"/>
	<path d="M162.6,463.204c-1.547,0-2.984,0.392-4.374,0.871c-0.111-6.813-4.011-11.09-9.444-13.283   c-0.018-6.332-4.805-11.845-10.657-12.329c-3.397-66.546,18.013-142.314,20.616-151.241c-0.014-0.006-0.031-0.009-0.046-0.015   c-38.66,108.909-34.369,144.998-34.764,144.998c-6.847,0-12.399,5.78-12.399,12.905c0,1.74,0.348,3.399,0.957,4.919   c-5.044,0.996-9.252,4.008-11.411,8.374c-1.953-1.733-4.318-2.918-7.005-2.918c-6.019,0-10.827,5.234-11.238,11.815   c-3.188-3.725-7.852-6.255-13.31-6.255c-9.598,0-17.38,7.363-17.38,16.448c0,9.094,7.782,16.456,17.38,16.456   c0,0,71.359,0,95.146,0c7.168,0,12.653-7.648,12.653-15.372C177.325,470.083,170.731,463.204,162.6,463.204z" fill="#000000"/>
	<path d="M440.605,302.882l-34.753-106.873l4.032-19.414c1.06-5.124,0.056-10.359-2.815-14.724   c-2.823-4.317-7.346-7.394-12.399-8.438l-11.49-2.388c-7.378-1.51-14.78,1.727-19.279,7.386h-57.828   c-4.548-5.083-11.444-7.997-18.45-6.579l-11.482,2.388c-5.061,1.044-9.585,4.12-12.407,8.43c-2.871,4.373-3.875,9.608-2.815,14.74   l3.929,18.919l-34.659,106.553c-4.151,12.755,2.823,26.467,15.586,30.611c6.781,2.212,13.793,1.199,19.536-2.085   c1.563,8.619,7.677,15.593,15.757,18.478V470.77c0,12.535,10.153,22.688,22.686,22.688c12.527,0,22.68-10.152,22.68-22.68V351.38   h17.928v119.39c0,12.535,10.153,22.688,22.685,22.688c12.536,0,22.689-10.152,22.689-22.688V349.885   c8.135-2.905,14.262-9.959,15.774-18.656c3.64,2.094,7.693,3.466,11.989,3.466c2.491,0,5.029-0.388,7.521-1.202   C437.774,329.349,444.757,315.637,440.605,302.882z M276.78,174.128c-0.182-0.894-0.008-1.803,0.491-2.578   c0.49-0.735,1.273-1.265,2.15-1.447l12.194-2.467c1.589,0,2.981,1.139,3.306,2.712l6.768,32.597h-9.125   c-3.328,0-6.478,0.684-9.436,1.765L276.78,174.128z M389.735,327.072c0,4.483-3.622,8.113-8.105,8.113h-92.458   c-4.483,0-8.104-3.63-8.104-8.113v-96.435c0-6.351,5.147-11.497,11.497-11.497h85.673c6.348,0,11.497,5.146,11.497,11.497V327.072z    M387.515,204.661c-2.914-1.045-6.008-1.716-9.277-1.716h-9.293l6.935-33.403c0.324-1.565,1.724-2.926,4.009-2.633l11.498,2.388   c0.87,0.182,1.653,0.712,2.143,1.455c0.498,0.767,0.672,1.677,0.49,2.563L387.515,204.661z" fill="#000000"/>
	<path d="M303.753,230.368c-5.701,0-10.328,4.618-10.328,10.327c0,5.702,4.627,10.328,10.328,10.328   c5.71,0,10.328-4.626,10.328-10.328C314.081,234.986,309.463,230.368,303.753,230.368z" fill="#000000"/>
	<path d="M367.046,229.562c-5.708,0-10.328,4.618-10.328,10.328c0,5.702,4.619,10.327,10.328,10.327   c5.702,0,10.328-4.625,10.328-10.327C377.374,234.18,372.748,229.562,367.046,229.562z" fill="#000000"/>
	<path d="M286.764,87.857c-0.37,2.437-0.748,4.875-0.748,7.416c0,27.273,22.111,49.375,49.383,49.375   c27.275,0,49.386-22.102,49.386-49.375c0-2.541-0.378-4.979-0.748-7.416c-14.815,3.242-31.745,4.917-48.637,4.917   C318.509,92.773,301.578,91.099,286.764,87.857z" fill="#000000"/>
	<path d="M335.4,76.578c51.843,0,78.571-14.771,78.571-21.074c0-4.642-14.614-13.839-42.966-18.381   C364.171,18.383,350.879,0,335.399,0c-15.479,0-28.772,18.383-35.605,37.124c-28.351,4.543-42.965,13.739-42.965,18.381   C256.829,61.807,283.557,76.578,335.4,76.578z" fill="#000000"/>
</g>
<g>
</g>
<g>
</g>
<g>
</g>
<g>
</g>
<g>
</g>
<g>
</g>
<g>
</g>
<g>
</g>
<g>
</g>
<g>
</g>
<g>
</g>
<g>
</g>
<g>
</g>
<g>
</g>
<g>
</g>
</svg>
