<?xml version="1.0" encoding="iso-8859-1"?>
<!-- Generator: Adobe Illustrator 18.0.0, SVG Export Plug-In . SVG Version: 6.00 Build 0)  -->
<!DOCTYPE svg PUBLIC "-//W3C//DTD SVG 1.1//EN" "http://www.w3.org/Graphics/SVG/1.1/DTD/svg11.dtd">
<svg xmlns="http://www.w3.org/2000/svg" xmlns:xlink="http://www.w3.org/1999/xlink" version="1.1" id="Capa_1" x="0px" y="0px" viewBox="0 0 305.562 305.562" style="enable-background:new 0 0 305.562 305.562;" xml:space="preserve" width="512px" height="512px">
<g>
	<path d="M290.313,268.147h-2.279c0.648-2,1.085-4.138,1.085-6.397c0-8.714-5.154-16.152-12.56-19.622   c0.926-2.707,1.562-5.525,1.562-8.521c0-11.923-7.951-22.058-19.14-26.169c8.517-18.5,14.451-17.777,25.321-34.986   c12.136-19.243,16.773-40.41,16.363-63.201c-0.409-17.766-3.912-29.087-3.912-29.087c-0.109-0.354-0.468-0.602-0.846-0.542   c-0.419,0.064-0.696,0.452-0.628,0.87c3.267,20.525,0.237,59.405-20.074,85.666c-9.452,12.377-16.604,15.333-23.938,24.2   c-2.991,3.55-7.355,10.931-8.589,15.586c-6.301,1.06-11.914,3.912-16.194,8.027c-5.649-37.584-44.35-49.315-44.35-107.88   c-11.938,55.241,30.854,80.267,30.854,115.518c-10.831-0.516-20.66,7.617-22.086,18.893c-16.314,1.121-29.073,13.642-29.161,27.642   h-7.943c-8.421,0-15.249,7.863-15.249,17.497c0,9.64,6.828,17.503,15.249,17.503h136.514c8.421,0,15.249-7.863,15.249-17.503   C305.562,276.01,298.734,268.147,290.313,268.147z" fill="#000000"/>
	<path d="M154.306,204.354l-12.67-22.305c4.221-2.413,6.36-7.425,4.647-12.158c-1.921-5.29-7.772-8.012-13.049-6.116l-28.754,10.406   L64.441,63.479c8.809-4.319,13.207-14.626,9.794-24.066l-4.339-12.009l7.991-2.89c2.647-0.961,3.017-6.654,0.815-12.715   c-2.188-6.061-6.11-10.207-8.757-9.246l-7.992,2.892L10.038,24.22v0.01l-7.952,2.966c-2.479,1.154-2.808,6.649-0.668,12.561   c2.13,5.912,5.902,9.918,8.55,9.231l8.023-2.802l4.35,12.004c2.775,7.703,10.151,12.873,18.343,12.873   c1.563,0,3.085-0.254,4.598-0.617l40.032,110.667l-29.551,10.694c-5.295,1.916-8.032,7.758-6.121,13.054   c1.502,4.146,5.414,6.728,9.584,6.728c0.638,0,1.274-0.214,1.912-0.338l4.956,25.58c2.827,14.591,13.576,26.376,27.839,30.541   l26.832,7.832c5.982,1.752,12.413-0.547,15.936-5.693l15.846-23.141C161.115,233.854,161.801,217.547,154.306,204.354z    M59.067,54.811l-15.209,5.505c-4.737,1.716-10.241-0.891-11.943-5.589l-4.34-12.008L60.31,30.874l4.339,12.003   C66.402,47.709,63.893,53.063,59.067,54.811z M114.295,231.267c-5.295,1.916-11.138-0.827-13.049-6.116l-0.009,0.005l-8.998-24.872   l19.169-6.933l8.988,24.828c0,0.015,0.01,0.025,0.02,0.039C122.327,223.509,119.6,229.351,114.295,231.267z" fill="#000000"/>
</g>
<g>
</g>
<g>
</g>
<g>
</g>
<g>
</g>
<g>
</g>
<g>
</g>
<g>
</g>
<g>
</g>
<g>
</g>
<g>
</g>
<g>
</g>
<g>
</g>
<g>
</g>
<g>
</g>
<g>
</g>
</svg>
