<?xml version="1.0" encoding="iso-8859-1"?>
<!-- Generator: Adobe Illustrator 16.0.0, SVG Export Plug-In . SVG Version: 6.00 Build 0)  -->
<!DOCTYPE svg PUBLIC "-//W3C//DTD SVG 1.1//EN" "http://www.w3.org/Graphics/SVG/1.1/DTD/svg11.dtd">
<svg xmlns="http://www.w3.org/2000/svg" xmlns:xlink="http://www.w3.org/1999/xlink" version="1.1" id="Capa_1" x="0px" y="0px" width="512px" height="512px" viewBox="0 0 101.632 101.632" style="enable-background:new 0 0 101.632 101.632;" xml:space="preserve">
<g>
	<g>
		<path d="M64.298,76.355l11.239-19.229l-10.485,13.23c0.342-4.74,0.064-9.281-0.818-13.754l6.854-27.057l-8.515,20.706    c-1.259-3.922-2.987-7.859-5.14-11.897l6.304-24.936l-8.585,20.909c-0.499-0.859-0.997-1.716-1.541-2.585    c-2.155-3.456-4.605-7.024-7.337-10.766c2.532,8.085,6.447,17.217,8.824,26.115L39.503,34.398l16.312,17.658l1.344,8.208    L29.699,44.339L57.42,66.298c0,0-1.716,11.871-5.33,24.813c-2.084,6.79-4.969,9.315-10.614,10.521l26.406-0.004    c-0.962-0.157-9.333-2.406-9.333-2.406S62.095,90.349,64.298,76.355z" fill="#000000"/>
		<path d="M33.283,44.623c1.167-1.993,1.241-4.046-1.668-6.44c-3.711-3.056-12.941-2.985-12.941-2.985s1.699,9.075,5.407,12.131    c2.909,2.394,4.909,1.932,6.644,0.404l-4.229-6.092L33.283,44.623z" fill="#000000"/>
		<path d="M34.283,37.835c2.907,2.397,4.909,1.932,6.639,0.404l-4.229-6.091l6.792,2.986c1.167-1.99,1.241-4.047-1.668-6.44    c-3.711-3.06-12.942-2.989-12.942-2.989S30.575,34.779,34.283,37.835z" fill="#000000"/>
		<path d="M60.787,16.238l3.71-6.42l0.191,7.416c2.303,0.21,4.188-0.599,5.119-4.25C70.995,8.326,66.998,0,66.998,0    s-7.491,5.404-8.675,10.058C57.393,13.713,58.665,15.324,60.787,16.238z" fill="#000000"/>
		<path d="M68.269,32.177l3.716-6.42l0.191,7.414c2.3,0.21,4.186-0.599,5.12-4.25c1.184-4.658-2.813-12.98-2.813-12.98    s-7.487,5.4-8.672,10.058C64.88,29.646,66.149,31.258,68.269,32.177z" fill="#000000"/>
		<path d="M82.717,45.903c0,0-8.819,2.726-11.434,6.757c-2.047,3.169-1.355,5.106,0.359,6.646l5.571-4.894l-2.19,7.081    c2.115,0.934,4.161,0.77,6.208-2.393C83.843,55.069,82.717,45.903,82.717,45.903z" fill="#000000"/>
		<path d="M45.442,25.125l-1.625-9.857l6.536,7.56c2.576-1.749,3.846-4.209,1.696-8.807C49.301,8.158,38.025,2.902,38.025,2.902    s-3.179,12.028-0.435,17.893C39.744,25.396,42.45,25.988,45.442,25.125z" fill="#000000"/>
	</g>
</g>
<g>
</g>
<g>
</g>
<g>
</g>
<g>
</g>
<g>
</g>
<g>
</g>
<g>
</g>
<g>
</g>
<g>
</g>
<g>
</g>
<g>
</g>
<g>
</g>
<g>
</g>
<g>
</g>
<g>
</g>
</svg>
