<?xml version="1.0" encoding="iso-8859-1"?>
<!-- Generator: Adobe Illustrator 18.1.1, SVG Export Plug-In . SVG Version: 6.00 Build 0)  -->
<svg xmlns="http://www.w3.org/2000/svg" xmlns:xlink="http://www.w3.org/1999/xlink" version="1.1" id="Capa_1" x="0px" y="0px" viewBox="0 0 40.451 40.451" style="enable-background:new 0 0 40.451 40.451;" xml:space="preserve" width="512px" height="512px">
<g>
	<g>
		<g>
			<path d="M20.222,0.002C9.058,0.002,0,9.057,0,20.226c0,11.167,9.058,20.223,20.222,20.223     c11.174,0,20.229-9.055,20.229-20.223C40.45,9.057,31.396,0.002,20.222,0.002z M35.186,20.988c1.271,0,2.31-0.942,2.482-2.164     c0.016,0.116,0.036,0.232,0.036,0.353c0,1.354-1.099,2.449-2.45,2.449c-1.318,0-2.391-1.045-2.441-2.353     C33.148,20.267,34.079,20.988,35.186,20.988z M34.531,23.451c0.015,0.115,0.033,0.23,0.033,0.352c0,1.354-1.097,2.45-2.449,2.45     c-1.319,0-2.389-1.045-2.441-2.353c0.338,0.994,1.268,1.713,2.372,1.713C33.32,25.613,34.355,24.672,34.531,23.451z      M28.591,20.988c1.272,0,2.308-0.942,2.483-2.164c0.015,0.116,0.033,0.232,0.033,0.353c0,1.354-1.096,2.449-2.449,2.449     c-1.318,0-2.389-1.045-2.441-2.353C26.555,20.267,27.482,20.988,28.591,20.988z M27.159,29.048c1.271,0,2.31-0.942,2.481-2.163     c0.014,0.116,0.032,0.23,0.032,0.352c0,1.354-1.096,2.451-2.45,2.451c-1.316,0-2.387-1.045-2.438-2.354     C25.122,28.328,26.055,29.048,27.159,29.048z M24.779,36.22c-1.315,0-2.389-1.046-2.438-2.354     c0.337,0.995,1.269,1.714,2.374,1.714c1.27,0,2.309-0.942,2.482-2.163c0.016,0.116,0.031,0.231,0.031,0.353     C27.229,35.123,26.135,36.22,24.779,36.22z M30.359,33.418c-1.314,0-2.387-1.045-2.437-2.354     c0.336,0.996,1.267,1.715,2.374,1.715c1.268,0,2.309-0.942,2.48-2.164c0.016,0.115,0.033,0.231,0.033,0.353     C32.813,32.32,31.717,33.418,30.359,33.418z M35.254,29.055c-1.318,0-2.391-1.045-2.441-2.353     c0.336,0.995,1.268,1.714,2.373,1.714c1.271,0,2.31-0.943,2.482-2.164c0.016,0.116,0.036,0.232,0.036,0.354     C37.704,27.959,36.605,29.055,35.254,29.055z" fill="#000000"/>
		</g>
	</g>
</g>
<g>
</g>
<g>
</g>
<g>
</g>
<g>
</g>
<g>
</g>
<g>
</g>
<g>
</g>
<g>
</g>
<g>
</g>
<g>
</g>
<g>
</g>
<g>
</g>
<g>
</g>
<g>
</g>
<g>
</g>
</svg>
