<?xml version="1.0" encoding="iso-8859-1"?>
<!-- Generator: Adobe Illustrator 16.0.0, SVG Export Plug-In . SVG Version: 6.00 Build 0)  -->
<!DOCTYPE svg PUBLIC "-//W3C//DTD SVG 1.1//EN" "http://www.w3.org/Graphics/SVG/1.1/DTD/svg11.dtd">
<svg xmlns="http://www.w3.org/2000/svg" xmlns:xlink="http://www.w3.org/1999/xlink" version="1.1" id="Capa_1" x="0px" y="0px" width="512px" height="512px" viewBox="0 0 221.336 221.336" style="enable-background:new 0 0 221.336 221.336;" xml:space="preserve">
<g>
	<path d="M131.077,121.787l10.241-54.51l30.287,5.691c2.229,0.42,4.386-1.054,4.806-3.283l4.539-24.143   c0.416-2.23-1.06-4.388-3.287-4.802l-30.287-5.695l4.815-25.636c0.418-2.228-1.053-4.383-3.28-4.803l-24.144-4.534   c-2.229-0.421-4.388,1.056-4.804,3.282l-4.815,25.638l-30.286-5.69c-2.229-0.419-4.385,1.053-4.809,3.284l-4.533,24.142   c-0.42,2.229,1.053,4.386,3.281,4.807l30.291,5.688l-10.607,56.44c-32.9,14.982-95.564,75.769-95.564,103.673h215.492   C218.413,198.584,165.846,142.188,131.077,121.787z" fill="#000000"/>
</g>
<g>
</g>
<g>
</g>
<g>
</g>
<g>
</g>
<g>
</g>
<g>
</g>
<g>
</g>
<g>
</g>
<g>
</g>
<g>
</g>
<g>
</g>
<g>
</g>
<g>
</g>
<g>
</g>
<g>
</g>
</svg>
