<?xml version="1.0" encoding="iso-8859-1"?>
<!-- Generator: Adobe Illustrator 16.0.0, SVG Export Plug-In . SVG Version: 6.00 Build 0)  -->
<!DOCTYPE svg PUBLIC "-//W3C//DTD SVG 1.1//EN" "http://www.w3.org/Graphics/SVG/1.1/DTD/svg11.dtd">
<svg xmlns="http://www.w3.org/2000/svg" xmlns:xlink="http://www.w3.org/1999/xlink" version="1.1" id="Capa_1" x="0px" y="0px" width="512px" height="512px" viewBox="0 0 239.437 239.437" style="enable-background:new 0 0 239.437 239.437;" xml:space="preserve">
<g>
	<path d="M230.202,115.115c2.124,0.421,4.192-0.966,4.612-3.087l4.547-22.984c0.42-2.123-0.967-4.191-3.089-4.61L207.44,78.73   l4.827-24.406c0.42-2.123-0.967-4.191-3.09-4.613l-22.98-4.545c-2.123-0.42-4.193,0.966-4.613,3.089l-4.826,24.405l-28.832-5.703   c-2.125-0.421-4.192,0.966-4.613,3.09l-4.547,22.982c-0.42,2.123,0.967,4.19,3.091,4.611l28.831,5.704l-12.067,61.002h-54.004   V95.702c0-22.041-17.867-39.908-39.908-39.908c-22.04,0-39.908,17.867-39.908,39.908v68.644H15c-8.284,0-15,6.716-15,15   s6.716,15,15,15h208.489c8.284,0,15-6.716,15-15s-6.716-15-15-15h-32.983l10.865-54.934L230.202,115.115z" fill="#000000"/>
</g>
<g>
</g>
<g>
</g>
<g>
</g>
<g>
</g>
<g>
</g>
<g>
</g>
<g>
</g>
<g>
</g>
<g>
</g>
<g>
</g>
<g>
</g>
<g>
</g>
<g>
</g>
<g>
</g>
<g>
</g>
</svg>
