<?xml version="1.0" encoding="iso-8859-1"?>
<!-- Generator: Adobe Illustrator 16.0.0, SVG Export Plug-In . SVG Version: 6.00 Build 0)  -->
<!DOCTYPE svg PUBLIC "-//W3C//DTD SVG 1.1//EN" "http://www.w3.org/Graphics/SVG/1.1/DTD/svg11.dtd">
<svg xmlns="http://www.w3.org/2000/svg" xmlns:xlink="http://www.w3.org/1999/xlink" version="1.1" id="Capa_1" x="0px" y="0px" width="512px" height="512px" viewBox="0 0 235.819 235.819" style="enable-background:new 0 0 235.819 235.819;" xml:space="preserve">
<g>
	<path d="M184.314,92.462c3.031,0,5.722-1.938,6.68-4.813l10.888-32.658c0.716-2.146,0.354-4.508-0.969-6.344   c-1.322-1.836-3.447-2.924-5.712-2.924h-46.83l2.15-38.286c0.109-1.934-0.584-3.826-1.913-5.232C147.277,0.797,145.428,0,143.492,0   H92.327c-1.936,0-3.785,0.797-5.116,2.204c-1.329,1.406-2.022,3.299-1.913,5.232l2.15,38.286h-46.83   c-2.264,0-4.389,1.088-5.712,2.924c-1.323,1.836-1.684,4.197-0.968,6.344l10.887,32.658c0.958,2.875,3.648,4.813,6.68,4.813h38.57   l5.135,91.419h-23.3c-3.889,0-7.041,3.151-7.041,7.041v7.979H47.972c-3.889,0-7.041,3.152-7.041,7.041v22.837   c0,3.889,3.152,7.041,7.041,7.041h139.877c3.889,0,7.041-3.152,7.041-7.041v-22.837c0-3.889-3.152-7.041-7.041-7.041h-16.897   v-7.979c0-3.89-3.151-7.041-7.041-7.041h-23.3l5.135-91.419H184.314z" fill="#000000"/>
</g>
<g>
</g>
<g>
</g>
<g>
</g>
<g>
</g>
<g>
</g>
<g>
</g>
<g>
</g>
<g>
</g>
<g>
</g>
<g>
</g>
<g>
</g>
<g>
</g>
<g>
</g>
<g>
</g>
<g>
</g>
</svg>
