<?xml version="1.0" encoding="iso-8859-1"?>
<!-- Generator: Adobe Illustrator 16.0.0, SVG Export Plug-In . SVG Version: 6.00 Build 0)  -->
<!DOCTYPE svg PUBLIC "-//W3C//DTD SVG 1.1//EN" "http://www.w3.org/Graphics/SVG/1.1/DTD/svg11.dtd">
<svg xmlns="http://www.w3.org/2000/svg" xmlns:xlink="http://www.w3.org/1999/xlink" version="1.1" id="Capa_1" x="0px" y="0px" width="512px" height="512px" viewBox="0 0 481.031 481.031" style="enable-background:new 0 0 481.031 481.031;" xml:space="preserve">
<g>
	<g>
		<path d="M431.168,92.928l-12.033-57.151l-31.51,37.505l-43.924,17.893l-76.428,73.76l-158.015-0.28l-56.881-25.734L0,175.543    l23.08,61.942c3.486-5.208,45.641-61.182,45.641-61.182l11.674,20.714l10.372,69.998l-10.371,59.895l-29.541,85.828l43.581,14.664    c15.104-34.879,43.55-82.604,90.465-99.873c-28.893,16.412-60.884,57.361-64.194,75.654l42.139,8.094    c6.203-28.6,18.236-63.817,41.533-88.883c5.721-0.938,11.672-1.445,17.868-1.445c11.069,0,21.222,1.699,30.536,4.729    c21.383,24.793,32.671,58.225,38.609,85.602l30.328-5.824c-10.254-25.055-25.781-52.182-48.742-70.479    c34.34,20.873,54.344,61.111,65.439,93.354l40.895-12.99l-29.795-164.615l41.418-43.208l48.115,20.99l34.318-2.564l7.662-35.919    C463.539,148.905,431.168,92.928,431.168,92.928z" fill="#000000"/>
		<polygon points="213.318,149.7 240.517,149.747 240.517,46.944 245.917,46.944 245.917,24.61 207.917,24.61 207.917,46.944     213.318,46.944   " fill="#000000"/>
		<path d="M284.148,431.817h-43.631V338.03c-5.881-1.285-11.996-1.943-18.271-1.943c-2.987,0-5.972,0.147-8.929,0.424v95.309h-43.63    l-9.015,24.602h132.486L284.148,431.817z" fill="#000000"/>
	</g>
</g>
<g>
</g>
<g>
</g>
<g>
</g>
<g>
</g>
<g>
</g>
<g>
</g>
<g>
</g>
<g>
</g>
<g>
</g>
<g>
</g>
<g>
</g>
<g>
</g>
<g>
</g>
<g>
</g>
<g>
</g>
</svg>
