<?xml version="1.0" encoding="iso-8859-1"?>
<!-- Generator: Adobe Illustrator 16.0.0, SVG Export Plug-In . SVG Version: 6.00 Build 0)  -->
<!DOCTYPE svg PUBLIC "-//W3C//DTD SVG 1.1//EN" "http://www.w3.org/Graphics/SVG/1.1/DTD/svg11.dtd">
<svg xmlns="http://www.w3.org/2000/svg" xmlns:xlink="http://www.w3.org/1999/xlink" version="1.1" id="Capa_1" x="0px" y="0px" width="512px" height="512px" viewBox="0 0 30.11 30.11" style="enable-background:new 0 0 30.11 30.11;" xml:space="preserve">
<g>
	<g>
		<g>
			<path d="M15.556,10.985c0.368,0,0.73,0.014,1.089,0.038V0.981c0-0.542-0.439-0.981-0.98-0.981c-0.543,0-0.98,0.439-0.98,0.981     v10.024c0.041-0.001,0.081-0.001,0.122-0.003C15.054,10.991,15.304,10.985,15.556,10.985z" fill="#000000"/>
			<path d="M14.684,21.913v7.216c0,0.543,0.438,0.981,0.981,0.981c0.542,0,0.98-0.438,0.98-0.981v-7.205     c-0.357-0.033-0.721-0.056-1.089-0.056C15.261,21.868,14.973,21.893,14.684,21.913z" fill="#000000"/>
			<path d="M28.569,19.26c-1.016-0.348-1.921-1.258-1.271-2.637c0.816-1.731,0.987-4.627-1.871-5.58     c-2.981-0.994-4.393,1.582-4.899,2.893c-1.371-0.618-3.095-0.989-4.971-0.989c-0.223,0-0.441,0.005-0.661,0.015     c-0.099,0.005-0.198,0.007-0.297,0.007c-0.833,0-1.644-0.174-2.397-0.483l0.442-0.247c0.201-0.112,0.336-0.313,0.365-0.542     c0.029-0.228-0.052-0.457-0.218-0.615c-1.036-0.992-1.091-2.556-1.091-2.556c-0.521-4.009-3.208-4.612-4.541-4.66     c-0.196-0.008-0.387,0.065-0.53,0.202c-0.14,0.137-0.22,0.325-0.22,0.522v1.587C6.033,6.247,5.636,6.346,5.35,6.613     C4.559,7.352,3.406,8.575,2.511,9.401c-0.965,0.892-1.469,2.162-0.929,3.359c0.28,0.621,0.895,0.996,1.543,0.996     c0.184,0,0.369-0.03,0.551-0.093l2.988-1.031l0.421,1.728c0.256,1.052,0.392,2.157,0.392,3.239c0,0.969,0.523,1.861,1.403,2.604     l-0.751,5.136C8.041,25.933,8.4,26.517,8.99,26.693c0.65,0.193,1.336-0.176,1.53-0.824l1.651-5.515     c1.032-0.278,2.168-0.449,3.383-0.449c1.199,0,2.321,0.166,3.345,0.438l1.689,5.525c0.174,0.567,0.738,0.942,1.347,0.856     c0.674-0.094,1.141-0.715,1.047-1.387l-0.726-5.16c0.862-0.739,1.377-1.625,1.377-2.582c0-0.709-0.283-1.377-0.775-1.979     c0.494-0.268,1.058-0.009,1.513,2.092c0.645,2.969,2.979,2.52,4.205,2.053c0.105-0.039,0.175-0.143,0.173-0.254     C28.748,19.395,28.675,19.295,28.569,19.26z" fill="#000000"/>
		</g>
	</g>
</g>
<g>
</g>
<g>
</g>
<g>
</g>
<g>
</g>
<g>
</g>
<g>
</g>
<g>
</g>
<g>
</g>
<g>
</g>
<g>
</g>
<g>
</g>
<g>
</g>
<g>
</g>
<g>
</g>
<g>
</g>
</svg>
