<?xml version="1.0" encoding="iso-8859-1"?>
<!-- Generator: Adobe Illustrator 17.1.0, SVG Export Plug-In . SVG Version: 6.00 Build 0)  -->
<!DOCTYPE svg PUBLIC "-//W3C//DTD SVG 1.1//EN" "http://www.w3.org/Graphics/SVG/1.1/DTD/svg11.dtd">
<svg xmlns="http://www.w3.org/2000/svg" xmlns:xlink="http://www.w3.org/1999/xlink" version="1.1" id="Capa_1" x="0px" y="0px" viewBox="0 0 200.5 200.5" style="enable-background:new 0 0 200.5 200.5;" xml:space="preserve" width="512px" height="512px">
<path d="M198.525,172.213c-2.199-1.671-5.335-1.241-7.007,0.956c-5.61,7.384-16.589,9.375-18.374,9.655H157.5v-17.815h8.333  c2.479,0,4.583-1.816,4.946-4.268c0.1-0.675,2.337-16.673-7.285-28.117c-4.625-5.499-9.857-6.785-15.398-8.146  c-3.771-0.926-8.046-1.977-13.49-4.504c-4.508-2.093-10.947-5.592-17.965-10.991l-6.62,7.97c-0.989,1.191-2.414,1.806-3.85,1.806  c-1.126,0-2.258-0.378-3.191-1.153c-2.124-1.765-2.416-4.917-0.652-7.041l6.696-8.062c-3.166-2.97-6.349-6.337-9.442-10.141  l-9.515,7.77c-0.929,0.758-2.048,1.127-3.16,1.127c-1.449,0-2.887-0.627-3.876-1.837c-1.746-2.139-1.429-5.289,0.71-7.035  l9.907-8.09c-0.153-0.231-0.309-0.456-0.461-0.689c-1.634-2.501-2.977-5.369-4.08-8.48l-9.497,4.416  c-0.683,0.317-1.399,0.467-2.105,0.467c-1.885,0-3.689-1.071-4.537-2.893c-1.164-2.504-0.078-5.478,2.426-6.642l11.116-5.168  c-0.839-4.392-1.362-8.988-1.657-13.555l-10.156,0.024c-0.235,0-0.465-0.015-0.69-0.046c-2.437-0.33-4.316-2.415-4.323-4.943  c-0.006-2.761,2.227-5.005,4.988-5.012l9.86-0.023c-0.032-15.289,1.875-28.069,1.913-28.317c0.221-1.442-0.198-2.909-1.148-4.016  c-0.95-1.106-2.336-1.744-3.794-1.744H24.949c-1.407,0-2.749,0.593-3.696,1.633c-0.947,1.041-1.413,2.432-1.282,3.833  c0.034,0.368,3.359,37.028-3.679,55.049c-7.868,20.146-6.188,46.069-6.113,47.163c0.017,0.242,0.051,0.481,0.103,0.718l9.782,45  c0.499,2.298,2.533,3.938,4.886,3.938H30.5v17.815H5c-2.762,0-5,2.239-5,5s2.238,5,5,5h168.5c0.201,0,0.402-0.012,0.603-0.037  c0.678-0.082,16.699-2.145,25.379-13.568C201.151,177.02,200.724,173.884,198.525,172.213z M147.5,182.824h-107v-17.815h14.345  c2.762,0,5-2.239,5-5V141.88l30.197,22.16c0.857,0.629,1.894,0.969,2.958,0.969h54.5V182.824z" fill="#000000"/>
<g>
</g>
<g>
</g>
<g>
</g>
<g>
</g>
<g>
</g>
<g>
</g>
<g>
</g>
<g>
</g>
<g>
</g>
<g>
</g>
<g>
</g>
<g>
</g>
<g>
</g>
<g>
</g>
<g>
</g>
</svg>
