<?xml version="1.0" encoding="iso-8859-1"?>
<!-- Generator: Adobe Illustrator 16.0.0, SVG Export Plug-In . SVG Version: 6.00 Build 0)  -->
<!DOCTYPE svg PUBLIC "-//W3C//DTD SVG 1.1//EN" "http://www.w3.org/Graphics/SVG/1.1/DTD/svg11.dtd">
<svg xmlns="http://www.w3.org/2000/svg" xmlns:xlink="http://www.w3.org/1999/xlink" version="1.1" id="Capa_1" x="0px" y="0px" width="512px" height="512px" viewBox="0 0 454.906 454.906" style="enable-background:new 0 0 454.906 454.906;" xml:space="preserve">
<g>
	<g id="Layer_2_28_">
		<path d="M444.906,420.953h-65.785v-42.311h34.515c4.916,0,9.104-3.573,9.877-8.429c15.01-94.298,4.018-131.001-4.008-157.801    c-3.517-11.739-6.294-21.011-6.294-32.795V23.953c0-5.522-4.477-10-10-10H274.646c-2.705,0-5.295,1.097-7.18,3.039    c-1.883,1.942-2.898,4.566-2.814,7.271c0.763,24.612,0.744,53.851-5.149,84.015c-11.496,56.432-25.955,86.314-51.568,106.581    c-25.217,19.951-63.316,32.109-135.889,43.367c-25.178,3.906-44.092,14.795-53.311,30.677    C6.407,307.687,0.669,361.528,0.051,367.638c-0.238,2.354,0.367,4.717,1.707,6.666l42.799,62.312    c1.865,2.715,4.947,4.338,8.242,4.338h392.107c5.523,0,10-4.478,10-10S450.43,420.953,444.906,420.953z M359.121,420.953H147.215    v-45.901c32.48-2.635,80.848-11.187,117.813-17.724c23.049-4.076,42.957-7.598,49.01-7.885c1.963-0.083,2.73,0.498,3.297,1.062    c3.289,3.265,4.515,12.495,4.308,17.677c-0.127,2.729,0.869,5.392,2.756,7.367c1.887,1.977,4.5,3.095,7.232,3.095h27.489    L359.121,420.953L359.121,420.953z M35.528,299.767c0.141-0.211,0.275-0.426,0.4-0.646c5.982-10.495,20.264-18.196,39.184-21.133    c22.689-3.521,43.514-7.294,62.406-11.854l-0.631,0.299c0.361,0.768,9.139,18.885,32.369,25.188    c0.877,0.236,1.758,0.352,2.625,0.352c4.402,0,8.436-2.931,9.645-7.384c1.447-5.329-1.701-10.823-7.031-12.271    c-9.346-2.536-14.818-7.934-17.502-11.393c10.547-3.13,20.377-6.617,29.471-10.58c3.846,4.928,14.502,16.191,33.338,19.09    c0.516,0.078,1.027,0.117,1.533,0.117c4.85,0,9.108-3.537,9.871-8.48c0.84-5.459-2.904-10.564-8.363-11.404    c-8.863-1.363-14.697-5.537-17.938-8.637c5.498-3.225,10.652-6.702,15.438-10.489c2.328-1.843,4.572-3.764,6.748-5.753    c5.811,5.04,15.404,11.087,29.072,12.6c0.375,0.041,0.743,0.062,1.112,0.062c5.029,0,9.359-3.786,9.926-8.9    c0.607-5.49-3.35-10.433-8.84-11.04c-8.412-0.931-14.225-4.475-17.686-7.359c4.147-5.279,7.977-11.025,11.522-17.326    c5.896,4.319,14.414,8.673,25.72,9.924c0.375,0.041,0.744,0.062,1.112,0.062c5.029,0,9.359-3.786,9.926-8.901    c0.607-5.489-3.35-10.432-8.84-11.039c-9.565-1.059-15.772-5.494-18.975-8.496c3.031-7.26,5.824-15.146,8.428-23.712    c5.578,2.543,12.982,4.742,21.93,4.742c1.748,0,3.562-0.084,5.425-0.267c5.498-0.536,9.518-5.428,8.979-10.924    c-0.535-5.497-5.432-9.521-10.924-8.98c-9.363,0.921-16.248-1.983-20.059-4.244c1.457-5.974,2.854-12.221,4.192-18.796    c5.469-27.989,6.209-54.805,5.785-78.238h108.311v145.666c0,14.715,3.466,26.284,7.134,38.532    c7.639,25.503,17.084,57.041,4.713,140.49h-63.982c-0.959-7.059-3.424-16.114-9.596-22.278    c-4.859-4.853-11.213-7.231-18.391-6.896c-6.988,0.332-23.306,3.174-51.543,8.166c-43.502,7.693-103.078,18.229-131.445,18.229    H21.61C24.497,334.841,29.63,308.498,35.528,299.767z M27.092,375.863h100.123v45.09H58.063L27.092,375.863z" fill="#000000"/>
	</g>
</g>
<g>
</g>
<g>
</g>
<g>
</g>
<g>
</g>
<g>
</g>
<g>
</g>
<g>
</g>
<g>
</g>
<g>
</g>
<g>
</g>
<g>
</g>
<g>
</g>
<g>
</g>
<g>
</g>
<g>
</g>
</svg>
