<?xml version="1.0" encoding="iso-8859-1"?>
<!-- Generator: Adobe Illustrator 18.1.1, SVG Export Plug-In . SVG Version: 6.00 Build 0)  -->
<svg xmlns="http://www.w3.org/2000/svg" xmlns:xlink="http://www.w3.org/1999/xlink" version="1.1" id="Capa_1" x="0px" y="0px" viewBox="0 0 61.89 61.89" style="enable-background:new 0 0 61.89 61.89;" xml:space="preserve" width="512px" height="512px">
<g>
	<g>
		<circle cx="52.129" cy="11.004" r="5.073" fill="#000000"/>
		<path d="M48.876,45.097v9.076h12.591v-9.076H48.876z M60.417,53.122H49.926v-6.978h10.491V53.122z" fill="#000000"/>
		<path d="M42.729,57.786c-1.438-0.739-4.775-2.017-7.24,0.449c-2.752,2.752-6.346,0.081-6.499-0.033    l-0.066,0.088c-1.518-0.743-4.706-1.84-7.078,0.533c-2.751,2.752-6.345,0.082-6.497-0.033l-0.227,0.299l0.21-0.311    c-0.046-0.031-4.745-3.162-7.953,0.045c-1.162,1.165-2.472,1.354-3.612,1.182L16.379,1.583    c6.839-0.279,15.082,6.201,20.559,11.401c-0.48,0.729-0.525,1.696,0.327,2.46c4.336,3.892,9.284,6.7,14.865,8.275    c0,3.924,0,7.849,0,11.774l-6.785,0.472c-2.198,0.153-3.881,1.975-3.901,4.142c-0.099,0.312-0.152,0.641-0.138,0.985    c0.149,3.327,0.048,6.715-0.342,10.978c-0.144,1.588,1.026,2.992,2.614,3.137c0.089,0.008,0.178,0.012,0.265,0.012    c1.478,0,2.733-1.126,2.871-2.626c0.282-3.11,0.42-5.792,0.427-8.335l10.026-0.699c2.312-0.161,4.057-2.167,3.896-4.479    c-0.01-0.137-0.025-0.27-0.048-0.399c0.022-0.192,0.038-0.394,0.038-0.603c0-5.58,0-11.159,0-16.737    c0-5.07-6.909-5.716-8.566-1.879c-4.571-1.416-8.644-3.745-12.252-6.983c-0.634-0.568-1.361-0.662-2-0.47    C32.221,6.274,22.861-1.027,15.114,0.12l0.216,1.46L2.77,59.763c-1.061-0.359-1.821-0.921-1.889-0.973l-0.458,0.602    c0.019,0.016,0.916,0.684,2.189,1.096l-0.011,0.051h0.183c0.528,0.158,1.112,0.269,1.725,0.269c1.116,0,2.317-0.36,3.404-1.446    c2.742-2.742,6.754-0.115,6.987,0.041c0.109,0.079,1.933,1.405,4.076,1.405c1.116,0,2.316-0.36,3.403-1.446    c2.764-2.766,6.822-0.07,6.994,0.045l0.041-0.062c0.757,0.399,1.924,0.876,3.204,0.876c1.117,0,2.317-0.362,3.404-1.448    c2.381-2.382,5.719-0.714,6.707-0.132v3.249h18.738v-5.387H42.729V57.786z" fill="#000000"/>
	</g>
</g>
<g>
</g>
<g>
</g>
<g>
</g>
<g>
</g>
<g>
</g>
<g>
</g>
<g>
</g>
<g>
</g>
<g>
</g>
<g>
</g>
<g>
</g>
<g>
</g>
<g>
</g>
<g>
</g>
<g>
</g>
</svg>
