<?xml version="1.0" encoding="iso-8859-1"?>
<!-- Generator: Adobe Illustrator 16.0.0, SVG Export Plug-In . SVG Version: 6.00 Build 0)  -->
<!DOCTYPE svg PUBLIC "-//W3C//DTD SVG 1.1//EN" "http://www.w3.org/Graphics/SVG/1.1/DTD/svg11.dtd">
<svg xmlns="http://www.w3.org/2000/svg" xmlns:xlink="http://www.w3.org/1999/xlink" version="1.1" id="Capa_1" x="0px" y="0px" width="512px" height="512px" viewBox="0 0 449.609 449.609" style="enable-background:new 0 0 449.609 449.609;" xml:space="preserve">
<g>
	<g>
		<path d="M448.529,183.301c-2.297-5.429-7.821-8.765-13.696-8.271l-76.611,6.431l-60.899-64.054    c-2.865-3.014-6.949-4.557-11.089-4.188l-136.966,12.176c-4.82,0.429-9.053,3.382-11.121,7.758    c-2.066,4.376-1.66,9.521,1.07,13.517l34.362,50.289L12.495,210.479c-5.442,0.457-10.086,4.116-11.803,9.301    c-1.717,5.185-0.176,10.893,3.919,14.508l51.51,45.488c1.961,0.891,3.828,1.797,5.65,2.682c9.229,4.479,16.515,8.016,32.714,8.016    c16.197,0,23.483-3.537,32.708-8.015c10.377-5.038,22.139-10.748,44.592-10.748s34.215,5.71,44.592,10.747    c9.228,4.479,16.512,8.016,32.713,8.016c16.199,0,23.485-3.537,32.713-8.016c10.377-5.037,22.139-10.747,44.594-10.747    c12.931,0,22.312,1.895,29.928,4.463l33.115-28.88l-187.84,10.12c-0.208,0.011-0.415,0.017-0.621,0.017    c-5.996,0-11.01-4.692-11.336-10.752c-0.338-6.267,4.469-11.62,10.733-11.958l216.877-11.684l27.685-24.144    C449.379,195.018,450.827,188.728,448.529,183.301z M204.748,194.342l-29.887-43.844l107.229-9.533l41.279,43.419L204.748,194.342    z" fill="#000000"/>
		<path d="M326.396,290.472c-22.455,0-34.217,5.71-44.594,10.747c-9.228,4.479-16.514,8.018-32.713,8.018    c-16.201,0-23.485-3.537-32.713-8.018c-10.377-5.037-22.139-10.747-44.592-10.747s-34.215,5.71-44.592,10.748    c-9.225,4.479-16.511,8.017-32.708,8.017c-16.199,0-23.485-3.537-32.714-8.018c-10.376-5.037-22.139-10.747-44.591-10.747v27.208    c16.199,0,23.487,3.537,32.711,8.016c10.377,5.039,22.14,10.748,44.594,10.748c22.452,0,34.212-5.709,44.59-10.748    c9.226-4.479,16.513-8.016,32.71-8.016c16.199,0,23.486,3.537,32.711,8.016c10.378,5.039,22.14,10.748,44.594,10.748    c22.452,0,34.215-5.709,44.594-10.748c9.225-4.479,16.512-8.016,32.713-8.016c16.198,0,23.486,3.537,32.714,8.016    c10.376,5.039,22.141,10.748,44.596,10.748v-27.207c-16.201,0-23.488-3.537-32.714-8.018    C360.613,296.183,348.85,290.472,326.396,290.472z" fill="#000000"/>
	</g>
</g>
<g>
</g>
<g>
</g>
<g>
</g>
<g>
</g>
<g>
</g>
<g>
</g>
<g>
</g>
<g>
</g>
<g>
</g>
<g>
</g>
<g>
</g>
<g>
</g>
<g>
</g>
<g>
</g>
<g>
</g>
</svg>
