<?xml version="1.0" encoding="iso-8859-1"?>
<!-- Generator: Adobe Illustrator 16.0.0, SVG Export Plug-In . SVG Version: 6.00 Build 0)  -->
<!DOCTYPE svg PUBLIC "-//W3C//DTD SVG 1.1//EN" "http://www.w3.org/Graphics/SVG/1.1/DTD/svg11.dtd">
<svg version="1.1" id="Capa_1" xmlns="http://www.w3.org/2000/svg" xmlns:xlink="http://www.w3.org/1999/xlink" x="0px" y="0px"
	 width="316.413px" height="316.413px" viewBox="0 0 316.413 316.413" style="enable-background:new 0 0 316.413 316.413;"
	 xml:space="preserve">
<g>
	<g>
		<path d="M67.132,238.407c2.969,0,5.375-2.409,5.375-5.375V129.005c0-2.968-2.407-5.375-5.375-5.375H41.126
			c-2.966,0-5.375,2.407-5.375,5.375v104.027c0,2.966,2.409,5.375,5.375,5.375H67.132z"/>
		<path d="M171.152,238.407c2.971,0,5.375-2.409,5.375-5.375V129.005c0-2.968-2.404-5.375-5.375-5.375h-26.006
			c-2.966,0-5.375,2.407-5.375,5.375v104.027c0,2.966,2.41,5.375,5.375,5.375H171.152z"/>
		<path d="M275.179,238.407c2.971,0,5.375-2.409,5.375-5.375V129.005c0-2.968-2.404-5.375-5.375-5.375h-26.006
			c-2.976,0-5.375,2.407-5.375,5.375v104.027c0,2.966,2.399,5.375,5.375,5.375H275.179z"/>
		<circle cx="158.144" cy="74.778" r="10.751"/>
		<path d="M312.949,104.621L160.75,20.42c-1.615-0.897-3.585-0.897-5.202,0L2.775,104.944c-2.145,1.188-3.216,3.676-2.604,6.047
			c0.614,2.37,2.754,4.032,5.205,4.032h305.547c0.047-0.005,0.079,0,0.115,0c2.966,0,5.375-2.407,5.375-5.375
			C316.413,107.353,314.98,105.395,312.949,104.621z M158.144,96.28c-11.858,0-21.501-9.644-21.501-21.502
			c0-11.858,9.644-21.501,21.501-21.501c11.863,0,21.502,9.644,21.502,21.501C179.646,86.636,170.006,96.28,158.144,96.28z"/>
		<path d="M22.759,249.164v13.003c0,2.966,2.409,5.375,5.375,5.375h260.032c2.971,0,5.375-2.409,5.375-5.375v-13.003
			c0-2.977-2.404-5.376-5.375-5.376H28.134C25.168,243.788,22.759,246.187,22.759,249.164z"/>
		<path d="M300.093,272.912H16.208c-2.968,0-5.375,2.41-5.375,5.376v13.003c0,2.966,2.407,5.375,5.375,5.375h283.886
			c2.972,0,5.376-2.409,5.376-5.375v-13.003C305.469,275.322,303.059,272.912,300.093,272.912z"/>
	</g>
</g>
<g>
</g>
<g>
</g>
<g>
</g>
<g>
</g>
<g>
</g>
<g>
</g>
<g>
</g>
<g>
</g>
<g>
</g>
<g>
</g>
<g>
</g>
<g>
</g>
<g>
</g>
<g>
</g>
<g>
</g>
</svg>
