<?xml version="1.0" encoding="iso-8859-1"?>
<!-- Generator: Adobe Illustrator 18.0.0, SVG Export Plug-In . SVG Version: 6.00 Build 0)  -->
<!DOCTYPE svg PUBLIC "-//W3C//DTD SVG 1.1//EN" "http://www.w3.org/Graphics/SVG/1.1/DTD/svg11.dtd">
<svg xmlns="http://www.w3.org/2000/svg" xmlns:xlink="http://www.w3.org/1999/xlink" version="1.1" id="Capa_1" x="0px" y="0px" viewBox="0 0 293.333 293.333" style="enable-background:new 0 0 293.333 293.333;" xml:space="preserve" width="512px" height="512px">
<g>
	<path d="M239.257,179.166H54.075c-4.15,0-8.092,1.817-10.79,4.971c-2.699,3.153-3.896,7.334-3.251,11.434   c5.281,33.568,26.031,61.995,54.723,77.763h-6.83c-5.522,0-10,4.477-10,10c0,5.522,4.478,10,10,10h117.48c5.523,0,10-4.478,10-10   c0-5.523-4.477-10-10-10h-6.833c28.692-15.768,49.443-44.193,54.725-77.762c0.646-4.104-0.538-8.283-3.239-11.439   C247.359,180.977,243.411,179.166,239.257,179.166z" fill="#000000"/>
	<path d="M146.667,172.333c4.143,0,7.5-3.357,7.5-7.5v-12.5c0-4.143-3.357-7.5-7.5-7.5c-4.143,0-7.5,3.357-7.5,7.5v12.5   C139.167,168.976,142.524,172.333,146.667,172.333z" fill="#000000"/>
	<path d="M146.667,133.366c4.143,0,7.5-3.357,7.5-7.5V99.399c0-4.143-3.357-7.5-7.5-7.5c-4.143,0-7.5,3.357-7.5,7.5v26.467   C139.167,130.009,142.524,133.366,146.667,133.366z" fill="#000000"/>
	<path d="M146.667,80.433c4.143,0,7.5-3.357,7.5-7.5V46.467c0-4.143-3.357-7.5-7.5-7.5c-4.143,0-7.5,3.357-7.5,7.5v26.466   C139.167,77.075,142.524,80.433,146.667,80.433z" fill="#000000"/>
	<path d="M146.667,27.5c4.143,0,7.5-3.357,7.5-7.5V7.5c0-4.143-3.357-7.5-7.5-7.5c-4.143,0-7.5,3.357-7.5,7.5V20   C139.167,24.143,142.524,27.5,146.667,27.5z" fill="#000000"/>
	<path d="M107.925,145.876c1.599,7.616,1.408,12.789,1.408,18.957c0,4.143,3.357,7.5,7.5,7.5c4.143,0,7.5-3.357,7.5-7.5   c0-6.263,0.221-12.75-1.728-22.039c-0.851-4.054-4.827-6.651-8.881-5.799C109.67,137.846,107.074,141.822,107.925,145.876z" fill="#000000"/>
	<path d="M65.504,97.374c3.896,1.387,8.19-0.646,9.579-4.554c1.388-3.902-0.651-8.191-4.554-9.579   c-8.659-3.079-17.75-4.646-27.021-4.656c-0.003,0-0.006,0-0.009,0c-4.138,0-7.495,3.353-7.5,7.491   c-0.005,4.142,3.35,7.504,7.491,7.509C51.051,93.594,58.458,94.868,65.504,97.374z" fill="#000000"/>
	<path d="M84.965,108.325c5.841,4.749,10.792,10.406,14.716,16.815c2.164,3.532,6.779,4.642,10.313,2.479   c3.532-2.163,4.643-6.78,2.479-10.313c-4.813-7.86-10.885-14.798-18.046-20.62c-3.214-2.614-7.938-2.126-10.551,1.088   C81.264,100.988,81.752,105.712,84.965,108.325z" fill="#000000"/>
	<path d="M183.338,127.62c3.535,2.163,8.15,1.051,10.314-2.479c3.924-6.409,8.875-12.066,14.716-16.815   c3.214-2.613,3.701-7.337,1.088-10.551c-2.611-3.213-7.335-3.702-10.551-1.088c-7.161,5.822-13.232,12.76-18.046,20.62   C178.696,120.84,179.806,125.457,183.338,127.62z" fill="#000000"/>
	<path d="M249.833,78.585c-0.003,0-0.006,0-0.009,0c-9.271,0.011-18.362,1.577-27.021,4.656c-3.902,1.388-5.941,5.677-4.554,9.579   c1.393,3.918,5.696,5.938,9.579,4.554c7.047-2.506,14.453-3.78,22.014-3.789c4.142-0.005,7.496-3.366,7.491-7.509   C257.329,81.938,253.972,78.585,249.833,78.585z" fill="#000000"/>
	<path d="M176.499,172.333c4.143,0,7.5-3.357,7.5-7.5c0-6.192-0.19-11.342,1.408-18.957c0.852-4.054-1.745-8.03-5.799-8.881   c-4.05-0.854-8.029,1.745-8.881,5.799c-1.953,9.306-1.729,15.872-1.729,22.039C168.999,168.976,172.357,172.333,176.499,172.333z" fill="#000000"/>
</g>
<g>
</g>
<g>
</g>
<g>
</g>
<g>
</g>
<g>
</g>
<g>
</g>
<g>
</g>
<g>
</g>
<g>
</g>
<g>
</g>
<g>
</g>
<g>
</g>
<g>
</g>
<g>
</g>
<g>
</g>
</svg>
