<?xml version="1.0" encoding="iso-8859-1"?>
<!-- Generator: Adobe Illustrator 18.0.0, SVG Export Plug-In . SVG Version: 6.00 Build 0)  -->
<!DOCTYPE svg PUBLIC "-//W3C//DTD SVG 1.1//EN" "http://www.w3.org/Graphics/SVG/1.1/DTD/svg11.dtd">
<svg xmlns="http://www.w3.org/2000/svg" xmlns:xlink="http://www.w3.org/1999/xlink" version="1.1" id="Capa_1" x="0px" y="0px" viewBox="0 0 489.531 489.531" style="enable-background:new 0 0 489.531 489.531;" xml:space="preserve" width="512px" height="512px">
<g id="XMLID_28_">
	<path id="XMLID_31_" d="M204.011,95.473c26.352,0,47.724-21.365,47.724-47.732c0-26.376-21.372-47.74-47.724-47.74   c-26.382,0-47.76,21.364-47.76,47.74C156.251,74.107,177.629,95.473,204.011,95.473z" fill="#000000"/>
	<path id="XMLID_30_" d="M403.052,332.323h-37.424V208.712c11.071-1.938,18.521-12.442,16.622-23.528   c-1.499-8.741-8.378-14.972-16.622-16.453V88.106c0-6.764-5.49-12.252-12.248-12.252c-6.764,0-12.253,5.488-12.253,12.252v83.367   l-35.828,6.109l-43.13-63.686c-4.277-6.29-11.409-8.366-18.484-8.65c-4.73-0.189-71.383-0.2-79.055,0   c-8.475,0.221-16.78,3.491-20.468,11.62l-68.077,149.15c-4.688,10.256-0.175,22.369,10.077,27.053   c10.435,4.728,22.463,0.031,27.055-10.098l32.923-72.132c0,8.239-0.062,92.719-0.062,254.188c0,13.535,10.974,24.504,24.501,24.504   c13.522,0,24.502-10.969,24.502-24.504V319.022h17.865v146.006c0,13.535,10.975,24.504,24.496,24.504   c13.526,0,24.501-10.969,24.501-24.504c0-137.256-0.061-198.685-0.061-278.727l16.975,25.065   c4.416,6.51,12.247,10.033,20.334,8.687l41.936-7.146v119.417h-37.435c-6.765,0-12.254,5.487-12.254,12.252   c0,6.762,5.489,12.251,12.254,12.251v29.19c0,14.004,4.671,27.042,12.491,37.74c4.064-2.402,8.674-3.973,13.667-4.268   c6.588-8.032,16.464-12.983,27.263-12.983c11.197,0,21.534,5.336,28.17,13.987c2.087,0.52,3.968,1.477,5.897,2.346   c7.418-10.52,11.872-23.2,11.872-36.807v-29.206c6.763,0,12.247-5.489,12.247-12.251   C415.299,337.81,409.815,332.323,403.052,332.323z" fill="#000000"/>
	<path id="XMLID_29_" d="M395.875,457.188c0.306-1.299,0.483-2.647,0.483-4.038c0-9.719-7.877-17.597-17.596-17.597   c-1.192,0-2.357,0.122-3.482,0.349c-2.684-7.561-9.698-13.063-18.168-13.063c-9.125,0-16.464,6.43-18.57,14.907   c-2.074-1.149-4.318-1.978-6.86-1.978c-7.94,0-14.384,6.442-14.384,14.388c0,2.535,0.826,4.792,1.977,6.86   c-8.662,0.412-15.583,7.426-15.583,16.183c0,9.02,7.304,16.333,16.33,16.333h74.19c9.027,0,16.338-7.313,16.338-16.333   C410.55,464.758,404.077,458.053,395.875,457.188z" fill="#000000"/>
</g>
<g>
</g>
<g>
</g>
<g>
</g>
<g>
</g>
<g>
</g>
<g>
</g>
<g>
</g>
<g>
</g>
<g>
</g>
<g>
</g>
<g>
</g>
<g>
</g>
<g>
</g>
<g>
</g>
<g>
</g>
</svg>
