<?xml version="1.0" encoding="iso-8859-1"?>
<!-- Generator: Adobe Illustrator 16.0.0, SVG Export Plug-In . SVG Version: 6.00 Build 0)  -->
<!DOCTYPE svg PUBLIC "-//W3C//DTD SVG 1.1//EN" "http://www.w3.org/Graphics/SVG/1.1/DTD/svg11.dtd">
<svg xmlns="http://www.w3.org/2000/svg" xmlns:xlink="http://www.w3.org/1999/xlink" version="1.1" id="Capa_1" x="0px" y="0px" width="512px" height="512px" viewBox="0 0 46.176 46.176" style="enable-background:new 0 0 46.176 46.176;" xml:space="preserve">
<g>
	<path d="M37.813,27.945l-8.242-7.179v-6.036h0.799c0.311,0,0.601-0.179,0.72-0.466s0.062-0.609-0.159-0.829l-6.336-6.351V5.791   h0.965c0.825,0,1.495-0.671,1.495-1.498c0-0.826-0.67-1.497-1.495-1.497h-0.965V1.508C24.595,0.675,23.92,0,23.087,0   s-1.509,0.675-1.509,1.508v1.288H20.62c-0.825,0-1.495,0.671-1.495,1.497c0,0.826,0.67,1.498,1.495,1.498h0.958v1.293l-6.333,6.35   c-0.219,0.22-0.276,0.543-0.157,0.83c0.119,0.288,0.41,0.466,0.721,0.466h0.793v6.036l-8.241,7.18   c-0.798,0.696-1.072,1.741-0.701,2.731c0.372,0.991,1.329,1.515,2.387,1.515h0.542v13.215c0,0.425,0.409,0.77,0.833,0.77h8.086   V38.14c0-1.985,1.592-3.594,3.578-3.594c1.985,0,3.577,1.608,3.577,3.594v8.036h8.093c0.424,0,0.826-0.345,0.826-0.77V32.193h0.549   c1.059,0,2.014-0.524,2.386-1.516C38.888,29.687,38.61,28.642,37.813,27.945z M25.146,20.592c0,0.312-0.242,0.547-0.556,0.547   h-2.955c-0.313,0-0.587-0.235-0.587-0.547v-3.467c0-1.127,0.919-2.042,2.048-2.042s2.05,0.914,2.05,2.042V20.592z" fill="#000000"/>
</g>
<g>
</g>
<g>
</g>
<g>
</g>
<g>
</g>
<g>
</g>
<g>
</g>
<g>
</g>
<g>
</g>
<g>
</g>
<g>
</g>
<g>
</g>
<g>
</g>
<g>
</g>
<g>
</g>
<g>
</g>
</svg>
