<?xml version="1.0" encoding="iso-8859-1"?>
<!-- Generator: Adobe Illustrator 19.0.0, SVG Export Plug-In . SVG Version: 6.00 Build 0)  -->
<svg xmlns="http://www.w3.org/2000/svg" xmlns:xlink="http://www.w3.org/1999/xlink" version="1.1" id="Capa_1" x="0px" y="0px" viewBox="0 0 295.677 295.677" style="enable-background:new 0 0 295.677 295.677;" xml:space="preserve" width="512px" height="512px">
<g>
	<path d="M295.665,219.142c0.564-28.145-19.536-37.137-47.357-49.583c-7.486-3.35-15.972-7.145-25.037-11.72   c-2.356-1.188-4.624-2.529-6.821-3.981l-18.6,25.798c-1.563,2.169-4.012,3.322-6.496,3.322c-1.621,0-3.257-0.491-4.672-1.512   c-3.584-2.584-4.395-7.584-1.811-11.168l19.202-26.634c-4.265-4.281-8.16-9.061-11.722-14.192l-25.67,20.37   c-1.471,1.167-3.225,1.733-4.968,1.733c-2.357,0-4.692-1.037-6.271-3.027c-2.746-3.461-2.167-8.493,1.294-11.239l27.232-21.609   c-2.374-4.433-4.557-9.001-6.56-13.639l-33.502,13.785c-0.996,0.409-2.027,0.604-3.041,0.604c-3.146,0-6.13-1.868-7.401-4.958   c-1.681-4.086,0.269-8.761,4.355-10.442l33.792-13.904c-1.615-4.625-3.07-9.235-4.384-13.768l-32.894,5.103   c-0.416,0.064-0.829,0.096-1.236,0.096c-3.877,0-7.283-2.824-7.895-6.774c-0.678-4.366,2.313-8.455,6.679-9.132l31.277-4.852   c-5.696-24.31-7.227-43.257-7.263-43.719c-0.165-2.22-1.247-4.27-2.986-5.658c-1.74-1.389-3.981-1.987-6.18-1.657l-99.91,15.014   c-3.162,0.475-5.737,2.791-6.549,5.885c-1.098,4.178-26.655,103.161-7.502,175.558c0.008,0.031,0.022,0.06,0.031,0.09   l11.288,44.651h21.58v25H8c-4.418,0-8,3.582-8,8s3.582,8,8,8h243.966c15.407,0,27.941-12.579,27.941-28.041   c0-5.646-1.689-10.905-4.582-15.311C287.913,241.036,295.417,231.553,295.665,219.142z M81.667,247.981h25v-23.028   c3,0.956,4.356,1.964,6.385,3.025c16.893,8.843,52.615,18.993,92.615,21.34v23.663h-124V247.981z M251.966,272.981h-30.299v-23.016   c1,0.005,1.098,0.016,1.497,0.016c0,0,0.001,0,0.002,0c9.297,0,20.096-0.414,30.121-0.98c5.979,0.747,10.62,5.811,10.62,11.939   C263.907,267.58,258.551,272.981,251.966,272.981z" fill="#000000"/>
</g>
<g>
</g>
<g>
</g>
<g>
</g>
<g>
</g>
<g>
</g>
<g>
</g>
<g>
</g>
<g>
</g>
<g>
</g>
<g>
</g>
<g>
</g>
<g>
</g>
<g>
</g>
<g>
</g>
<g>
</g>
</svg>
