<?xml version="1.0" encoding="iso-8859-1"?>
<!-- Generator: Adobe Illustrator 16.0.0, SVG Export Plug-In . SVG Version: 6.00 Build 0)  -->
<!DOCTYPE svg PUBLIC "-//W3C//DTD SVG 1.1//EN" "http://www.w3.org/Graphics/SVG/1.1/DTD/svg11.dtd">
<svg xmlns="http://www.w3.org/2000/svg" xmlns:xlink="http://www.w3.org/1999/xlink" version="1.1" id="Capa_1" x="0px" y="0px" width="512px" height="512px" viewBox="0 0 51.054 51.055" style="enable-background:new 0 0 51.054 51.055;" xml:space="preserve">
<g>
	<path d="M44.242,8.227C43.164,7.062,41.982,6,40.707,5.052C36.458,1.894,31.215,0,25.527,0C19.176,0,13.375,2.346,8.902,6.198   C7.706,7.229,6.604,8.364,5.614,9.596c-3.504,4.372-5.613,9.905-5.613,15.931c0,6.023,2.109,11.558,5.612,15.929   c0.988,1.231,2.091,2.369,3.289,3.399c4.472,3.853,10.274,6.199,16.625,6.199c6.837,0,13.044-2.72,17.632-7.113   c1.143-1.096,2.179-2.295,3.104-3.585c3.001-4.185,4.79-9.298,4.79-14.828C51.052,18.849,48.455,12.781,44.242,8.227z    M4.736,25.527c0-4.665,1.563-8.961,4.167-12.435c1.043,1.392,1.91,2.919,2.584,4.546l-1.862,0.78l1.099,2.622l1.677-0.703   c0.317,1.216,0.52,2.476,0.608,3.767h-2.835v2.845h2.835c-0.094,1.354-0.317,2.669-0.661,3.938l-1.625-0.681l-1.099,2.622   l1.796,0.753c-0.665,1.563-1.512,3.033-2.519,4.376C6.298,34.486,4.736,30.19,4.736,25.527z M25.527,46.315   c-5.074,0-9.723-1.831-13.336-4.859c1.463-1.827,2.665-3.864,3.59-6.046l2.613,1.096l1.1-2.623l-2.751-1.152   c0.548-1.85,0.888-3.783,1-5.78h2.269v-2.846h-2.269c-0.108-1.936-0.427-3.813-0.945-5.607l2.697-1.131l-1.1-2.622L15.85,15.81   c-0.933-2.245-2.158-4.342-3.659-6.214c3.613-3.028,8.264-4.86,13.337-4.86c4.504,0,8.668,1.455,12.077,3.899   c-1.483,2.068-2.668,4.364-3.488,6.822l-1.703-0.714l-1.1,2.622l2.064,0.865c-0.357,1.69-0.564,3.438-0.564,5.234   c0,0.249,0.028,0.489,0.037,0.736h-2.824v2.844h3.069c0.279,1.956,0.763,3.845,1.462,5.632l-2.642,1.107l1.099,2.622l2.727-1.142   c1.055,2,2.357,3.852,3.882,5.5C35.914,44.197,30.968,46.315,25.527,46.315z M42.744,37.168c-1.006-1.142-1.871-2.402-2.61-3.744   l1.649-0.69l-1.098-2.622l-1.77,0.74c-0.467-1.217-0.814-2.49-1.047-3.805h1.994v-2.845h-2.28   c-0.009-0.246-0.035-0.487-0.035-0.736c0-1.147,0.101-2.271,0.28-3.369l2.255,0.944l1.1-2.622l-2.696-1.131   c0.612-1.961,1.506-3.8,2.637-5.466c3.224,3.663,5.195,8.452,5.195,13.705C46.318,29.838,44.999,33.846,42.744,37.168z" fill="#000000"/>
</g>
<g>
</g>
<g>
</g>
<g>
</g>
<g>
</g>
<g>
</g>
<g>
</g>
<g>
</g>
<g>
</g>
<g>
</g>
<g>
</g>
<g>
</g>
<g>
</g>
<g>
</g>
<g>
</g>
<g>
</g>
</svg>
