<?xml version="1.0" encoding="iso-8859-1"?>
<!-- Generator: Adobe Illustrator 16.0.0, SVG Export Plug-In . SVG Version: 6.00 Build 0)  -->
<!DOCTYPE svg PUBLIC "-//W3C//DTD SVG 1.1//EN" "http://www.w3.org/Graphics/SVG/1.1/DTD/svg11.dtd">
<svg xmlns="http://www.w3.org/2000/svg" xmlns:xlink="http://www.w3.org/1999/xlink" version="1.1" id="Capa_1" x="0px" y="0px" width="512px" height="512px" viewBox="0 0 45.321 45.32" style="enable-background:new 0 0 45.321 45.32;" xml:space="preserve">
<g>
	<path d="M44.559,27.195L24.119,6.785V5.476h1.063c0.834,0,1.508-0.644,1.508-1.478c0-0.833-0.674-1.479-1.508-1.479h-1.063V1.509   C24.119,0.676,23.475,0,22.641,0c-0.833,0-1.478,0.676-1.478,1.509v1.012h-1.008c-0.833,0-1.508,0.645-1.508,1.478   s0.675,1.478,1.508,1.478h1.008v1.309L0.75,27.195c-0.576,0.576-0.748,1.455-0.437,2.207c0.312,0.752,1.045,1.256,1.858,1.256   h1.699l0.005,13.244c0,0.797,0.647,1.418,1.445,1.418h11.822v-7.152c0-3.055,2.502-5.531,5.557-5.531   c3.055,0,5.557,2.477,5.557,5.531v7.152h11.766c0.384,0,0.752-0.141,1.022-0.412c0.271-0.271,0.423-0.618,0.423-1.002   l-0.004-13.248h1.702c0.813,0,1.533-0.504,1.845-1.256C45.321,28.65,45.135,27.771,44.559,27.195z M25.538,22.979   c0,0.334-0.275,0.586-0.609,0.586H20.41c-0.334,0-0.547-0.252-0.547-0.586v-4.177c0-1.582,1.255-2.864,2.837-2.864   s2.837,1.282,2.837,2.864L25.538,22.979L25.538,22.979z" fill="#000000"/>
</g>
<g>
</g>
<g>
</g>
<g>
</g>
<g>
</g>
<g>
</g>
<g>
</g>
<g>
</g>
<g>
</g>
<g>
</g>
<g>
</g>
<g>
</g>
<g>
</g>
<g>
</g>
<g>
</g>
<g>
</g>
</svg>
