<?xml version="1.0" encoding="iso-8859-1"?>
<!-- Generator: Adobe Illustrator 17.1.0, SVG Export Plug-In . SVG Version: 6.00 Build 0)  -->
<!DOCTYPE svg PUBLIC "-//W3C//DTD SVG 1.1//EN" "http://www.w3.org/Graphics/SVG/1.1/DTD/svg11.dtd">
<svg xmlns="http://www.w3.org/2000/svg" xmlns:xlink="http://www.w3.org/1999/xlink" version="1.1" id="Capa_1" x="0px" y="0px" viewBox="0 0 172.491 172.491" style="enable-background:new 0 0 172.491 172.491;" xml:space="preserve" width="512px" height="512px">
<path d="M172.49,86.246c0,23.019-9.083,43.944-23.83,59.426c-13.365-11.055-33.22-32.247-33.22-60.584  c0-28.031,19.59-48.158,32.904-58.601C163.278,42.001,172.49,63.062,172.49,86.246z M57.051,87.403  c0-28.337-19.856-49.529-33.22-60.584C9.083,42.301,0,63.226,0,86.246c0,23.184,9.212,44.244,24.147,59.758  C37.461,135.561,57.051,115.434,57.051,87.403z M105.44,85.088c0-31.566,20.573-53.693,35.408-65.546  C125.966,7.337,106.948,0,86.245,0C65.352,0,46.174,7.472,31.233,19.879c14.822,12.432,35.818,35.665,35.818,67.525  c0,31.566-20.573,53.693-35.408,65.546c14.882,12.204,33.9,19.541,54.602,19.541c20.893,0,40.071-7.472,55.012-19.878  C126.436,140.18,105.44,116.947,105.44,85.088z" fill="#000000"/>
<g>
</g>
<g>
</g>
<g>
</g>
<g>
</g>
<g>
</g>
<g>
</g>
<g>
</g>
<g>
</g>
<g>
</g>
<g>
</g>
<g>
</g>
<g>
</g>
<g>
</g>
<g>
</g>
<g>
</g>
</svg>
