<?xml version="1.0" encoding="iso-8859-1"?>
<!-- Generator: Adobe Illustrator 16.0.0, SVG Export Plug-In . SVG Version: 6.00 Build 0)  -->
<!DOCTYPE svg PUBLIC "-//W3C//DTD SVG 1.1//EN" "http://www.w3.org/Graphics/SVG/1.1/DTD/svg11.dtd">
<svg xmlns="http://www.w3.org/2000/svg" xmlns:xlink="http://www.w3.org/1999/xlink" version="1.1" id="Capa_1" x="0px" y="0px" width="512px" height="512px" viewBox="0 0 46.01 46.01" style="enable-background:new 0 0 46.01 46.01;" xml:space="preserve">
<g>
	<path d="M46.01,7.202c0-0.816-0.4-1.581-1.072-2.044s-1.529-0.567-2.293-0.277l-12.58,4.785c-0.282,0.107-0.582,0.162-0.883,0.162   H15.863c-0.308,0-0.614,0.057-0.901,0.169L1.583,15.204C0.628,15.575,0,16.494,0,17.518v21.289c0,0.79,0.375,1.532,1.011,2   c0.636,0.468,1.456,0.605,2.21,0.371l12.368-3.85c0.239-0.074,0.488-0.111,0.738-0.111h13.466c0.303,0,0.602-0.056,0.882-0.162   l13.734-5.221c0.963-0.366,1.601-1.29,1.601-2.321V7.202z M3.287,18.534c0-0.275,0.169-0.521,0.426-0.621l9.625-3.703   c0.205-0.079,0.435-0.051,0.615,0.073c0.18,0.124,0.288,0.329,0.288,0.548v19.036c0,0.292-0.19,0.55-0.469,0.636l-9.625,2.961   c-0.202,0.062-0.42,0.024-0.59-0.102c-0.169-0.125-0.27-0.324-0.27-0.535V18.534z M18.192,33.93c-0.367,0-0.665-0.297-0.665-0.665   V13.779c0-0.367,0.297-0.665,0.665-0.665h9.626c0.367,0,0.664,0.297,0.664,0.665v19.485c0,0.367-0.297,0.665-0.664,0.665H18.192z    M42.725,28.51c0,0.274-0.17,0.521-0.427,0.621l-9.625,3.703c-0.205,0.078-0.435,0.051-0.614-0.073   c-0.181-0.124-0.289-0.329-0.289-0.548V13.057c0-0.275,0.17-0.521,0.426-0.621l9.627-3.702c0.203-0.079,0.434-0.051,0.615,0.073   c0.18,0.124,0.287,0.329,0.287,0.548V28.51L42.725,28.51z" fill="#000000"/>
</g>
<g>
</g>
<g>
</g>
<g>
</g>
<g>
</g>
<g>
</g>
<g>
</g>
<g>
</g>
<g>
</g>
<g>
</g>
<g>
</g>
<g>
</g>
<g>
</g>
<g>
</g>
<g>
</g>
<g>
</g>
</svg>
