<?xml version="1.0" encoding="iso-8859-1"?>
<!-- Generator: Adobe Illustrator 18.0.0, SVG Export Plug-In . SVG Version: 6.00 Build 0)  -->
<!DOCTYPE svg PUBLIC "-//W3C//DTD SVG 1.1//EN" "http://www.w3.org/Graphics/SVG/1.1/DTD/svg11.dtd">
<svg xmlns="http://www.w3.org/2000/svg" xmlns:xlink="http://www.w3.org/1999/xlink" version="1.1" id="Capa_1" x="0px" y="0px" viewBox="0 0 479.349 479.349" style="enable-background:new 0 0 479.349 479.349;" xml:space="preserve" width="512px" height="512px">
<g id="XMLID_9_">
	<path id="XMLID_2_" d="M158.086,278.416c-31.653-8.941-52.048-22.962-52.048-38.735c0-27.021,59.839-48.904,133.637-48.904   c2.015,0,4.018,0.02,6.011,0.052l32.389-32.385c-12.559-1.105-25.378-1.726-38.417-1.726   c-89.837,0.001-169.665,28.696-220.184,52.335C7.584,214.616-0.003,226.566,0,239.692c0.003,13.126,7.6,25.066,19.489,30.63   c28.13,13.164,65.354,27.89,108.324,38.361L158.086,278.416z" fill="#000000"/>
	<path id="XMLID_7_" d="M459.858,209.052c-28.131-13.163-65.359-27.888-108.336-38.359l-30.257,30.253   c31.654,8.941,52.049,22.962,52.049,38.735c0,27.023-59.838,48.905-133.639,48.905c-2.015,0-4.018-0.02-6.011-0.052l-32.403,32.399   c12.552,1.104,25.365,1.725,38.397,1.725c89.837,0,169.663-28.695,220.184-52.337c11.895-5.566,19.503-17.494,19.507-30.626   C479.352,226.564,471.752,214.617,459.858,209.052z" fill="#000000"/>
	<path id="XMLID_8_" d="M153.461,347.306L347.333,153.46c5.709,2.493,11.86,3.642,17.98,3.444   c10.181-0.327,20.264-4.367,28.034-12.139l33.73-33.736c1.713-1.714,2.675-4.037,2.675-6.46c-0.001-2.422-0.963-4.745-2.677-6.458   l-45.843-45.83c-3.567-3.566-9.351-3.566-12.917,0.001l-33.729,33.735c-7.477,7.479-11.796,17.516-12.132,28.052   c-0.015,0.442-0.033,0.884-0.033,1.327c0.001,5.783,1.219,11.438,3.491,16.636L132.032,325.887   c-3.528-1.541-7.225-2.573-10.981-3.087c-12.426-1.698-25.473,2.221-35.026,11.771l-33.747,33.734   c-1.713,1.713-2.676,4.036-2.676,6.459c-0.001,2.423,0.962,4.747,2.675,6.46l45.843,45.842c3.566,3.566,9.35,3.567,12.917,0.001   l33.736-33.731c9.555-9.553,13.477-22.601,11.781-35.028C156.041,354.545,155.006,350.841,153.461,347.306z" fill="#000000"/>
</g>
<g>
</g>
<g>
</g>
<g>
</g>
<g>
</g>
<g>
</g>
<g>
</g>
<g>
</g>
<g>
</g>
<g>
</g>
<g>
</g>
<g>
</g>
<g>
</g>
<g>
</g>
<g>
</g>
<g>
</g>
</svg>
