<?xml version="1.0" encoding="iso-8859-1"?>
<!-- Generator: Adobe Illustrator 16.0.0, SVG Export Plug-In . SVG Version: 6.00 Build 0)  -->
<!DOCTYPE svg PUBLIC "-//W3C//DTD SVG 1.1//EN" "http://www.w3.org/Graphics/SVG/1.1/DTD/svg11.dtd">
<svg xmlns="http://www.w3.org/2000/svg" xmlns:xlink="http://www.w3.org/1999/xlink" version="1.1" id="Capa_1" x="0px" y="0px" width="512px" height="512px" viewBox="0 0 348.453 348.453" style="enable-background:new 0 0 348.453 348.453;" xml:space="preserve">
<g>
	<g>
		<path d="M274.347,138.411c-3.291,0-6.797,0.285-11.013,0.907l-0.336,0.048l-16.045-63.837h27.033V61.877h-66.509v13.652h25.395    l8.04,31.973h-99.166l-5.375-22.356h23.188v-13.67h-48.492v12.932h11.082l8.151,33.942l-20.185,29.471l-0.297-0.165    c-10.908-6.047-23.271-9.244-35.744-9.244C33.222,138.411,0,171.653,0,212.501c0,40.845,33.228,74.075,74.075,74.075    c38.359,0,70.049-28.763,73.721-66.911l15.432-0.33l80.447-100.908l6.095,24.265l-0.331,0.117    c-29.399,10.562-49.155,38.563-49.155,69.691c0,40.845,33.231,74.075,74.075,74.075c40.869,0,74.094-33.23,74.094-74.075    C348.441,171.653,315.216,138.411,274.347,138.411z M274.347,272.909c-33.309,0-60.408-27.105-60.408-60.408    c0-24.751,15.589-47.396,38.767-56.343l0.385-0.153l14.544,57.806l13.246-3.333l-14.543-57.817l0.401-0.051    c2.786-0.342,5.291-0.517,7.603-0.517c33.326,0,60.426,27.112,60.426,60.415C334.767,245.81,307.673,272.909,274.347,272.909z     M147.82,205.65l-0.03-0.324c-1.871-19.354-11.16-36.963-26.157-49.555l-0.261-0.222l13.235-19.326l16.675,69.428H147.82z     M74.069,272.909c-33.314,0-60.417-27.105-60.417-60.408c0-33.302,27.103-60.414,60.417-60.414c9.803,0,19.179,2.312,27.886,6.87    l0.387,0.195l-41.247,60.184h72.955l-0.054,0.42C130.358,250.055,104.592,272.909,74.069,272.909z M113.884,167.171    c11.223,9.875,18.365,23.401,20.113,38.053l0.042,0.427H87.025l26.547-38.756L113.884,167.171z M163.315,197.297l-18.293-76.138    h78.981L163.315,197.297z" fill="#000000"/>
	</g>
</g>
<g>
</g>
<g>
</g>
<g>
</g>
<g>
</g>
<g>
</g>
<g>
</g>
<g>
</g>
<g>
</g>
<g>
</g>
<g>
</g>
<g>
</g>
<g>
</g>
<g>
</g>
<g>
</g>
<g>
</g>
</svg>
