<?xml version="1.0" encoding="iso-8859-1"?>
<!-- Generator: Adobe Illustrator 18.0.0, SVG Export Plug-In . SVG Version: 6.00 Build 0)  -->
<!DOCTYPE svg PUBLIC "-//W3C//DTD SVG 1.1//EN" "http://www.w3.org/Graphics/SVG/1.1/DTD/svg11.dtd">
<svg xmlns="http://www.w3.org/2000/svg" xmlns:xlink="http://www.w3.org/1999/xlink" version="1.1" id="Capa_1" x="0px" y="0px" viewBox="0 0 468.806 468.806" style="enable-background:new 0 0 468.806 468.806;" xml:space="preserve" width="512px" height="512px">
<g id="XMLID_63_">
	<path id="XMLID_67_" d="M90.219,151.68c29.886,0,44.268,0,50.647,0c3.205,0,4.401,0,4.523,0c5.581,0,17.25,0,40.066,0l8.925-27.071   c3.173-9.637,12.175-16.146,22.326-16.146h63.296c4.479,0,8.694,2.147,11.316,5.781c2.622,3.626,3.343,8.295,1.933,12.543   l-8.204,24.894h65.643l20.531-52.87h22.494c9.263,0,16.76-7.506,16.76-16.775c0-9.269-7.497-16.775-16.76-16.775   c-57.041,0-82.479,0-92.891,0c-4.613,0-6.353,0-6.486,0c-0.004,0-0.012,0-0.012,0c-8.501,0-26.901,0-64.052,0   c-35.007,0-66.363,20.938-80.163,52.87H90.219c-9.261,0-16.775,7.505-16.775,16.775C73.444,144.174,80.958,151.68,90.219,151.68z" fill="#000000"/>
	<path id="XMLID_66_" d="M468.085,264.888l-27.983-52.979c-9.859-18.667-29.226-30.344-50.34-30.344L8.568,181.557   c-3.864,0-7.236,2.576-8.265,6.294c-1.012,3.718,0.568,7.659,3.88,9.629l120.261,71.498c15.993-8.159,33.869-12.606,52.187-12.606   c24.335,0,47.895,7.844,67.292,21.823c19.396-13.979,42.957-21.823,67.292-21.823c24.335,0,47.895,7.844,67.292,21.823   c19.396-13.979,42.956-21.823,67.291-21.823c9.102,0,17.292,3.89,23.009,10.094C468.593,265.932,468.358,265.404,468.085,264.888z" fill="#000000"/>
	<path id="XMLID_65_" d="M445.798,276.657c-25.324,0-49.634,10.32-67.292,28.115c-17.658-17.795-41.968-28.115-67.292-28.115   c-25.324,0-49.634,10.32-67.292,28.115c-17.658-17.795-41.968-28.115-67.292-28.115s-49.634,10.32-67.292,28.115   c-17.657-17.796-41.966-28.115-67.291-28.115c-6.075,0-11,4.925-11,11s4.925,11,11,11c23.274,0,44.578,10.753,58.448,29.501   c2.074,2.804,5.354,4.458,8.843,4.458c3.487,0,6.769-1.654,8.843-4.458c13.871-18.749,35.175-29.502,58.449-29.502   s44.578,10.753,58.449,29.502c2.074,2.804,5.355,4.458,8.843,4.458c3.487,0,6.768-1.654,8.843-4.458   c13.871-18.749,35.175-29.502,58.449-29.502c23.274,0,44.578,10.753,58.449,29.502c2.074,2.804,5.355,4.458,8.843,4.458   s6.768-1.654,8.843-4.458c13.871-18.749,35.175-29.502,58.449-29.502c6.075,0,11-4.925,11-11S451.873,276.657,445.798,276.657z" fill="#000000"/>
	<path id="XMLID_64_" d="M445.798,347.587c-25.325,0-49.634,10.32-67.292,28.115c-17.658-17.795-41.967-28.115-67.292-28.115   s-49.634,10.32-67.292,28.115c-17.658-17.795-41.967-28.115-67.292-28.115c-25.325,0-49.634,10.319-67.292,28.115   c-17.657-17.795-41.966-28.115-67.291-28.115c-6.075,0-11,4.925-11,11c0,6.075,4.925,11,11,11   c23.274,0,44.578,10.753,58.448,29.501c2.074,2.804,5.354,4.458,8.843,4.458c3.487,0,6.769-1.654,8.843-4.458   c13.871-18.749,35.175-29.501,58.449-29.501s44.578,10.753,58.449,29.501c2.074,2.804,5.355,4.458,8.843,4.458   c3.487,0,6.768-1.654,8.843-4.458c13.871-18.749,35.175-29.501,58.449-29.501c23.274,0,44.578,10.753,58.449,29.501   c2.074,2.804,5.355,4.458,8.843,4.458s6.768-1.654,8.843-4.458c13.871-18.749,35.175-29.501,58.449-29.501c6.075,0,11-4.925,11-11   C456.798,352.512,451.873,347.587,445.798,347.587z" fill="#000000"/>
</g>
<g>
</g>
<g>
</g>
<g>
</g>
<g>
</g>
<g>
</g>
<g>
</g>
<g>
</g>
<g>
</g>
<g>
</g>
<g>
</g>
<g>
</g>
<g>
</g>
<g>
</g>
<g>
</g>
<g>
</g>
</svg>
