<?xml version="1.0" encoding="iso-8859-1"?>
<!-- Generator: Adobe Illustrator 16.0.0, SVG Export Plug-In . SVG Version: 6.00 Build 0)  -->
<!DOCTYPE svg PUBLIC "-//W3C//DTD SVG 1.1//EN" "http://www.w3.org/Graphics/SVG/1.1/DTD/svg11.dtd">
<svg xmlns="http://www.w3.org/2000/svg" xmlns:xlink="http://www.w3.org/1999/xlink" version="1.1" id="Capa_1" x="0px" y="0px" width="512px" height="512px" viewBox="0 0 45 45" style="enable-background:new 0 0 45 45;" xml:space="preserve">
<g>
	<path d="M27.511,21.88c-0.797-0.756-1.319-1.987-1.319-3.38c0-2.302,3.166-6.334,3.166-6.334s3.168,4.033,3.168,6.334   c0,1.393-0.522,2.624-1.321,3.38c0.088-0.296,0.142-0.615,0.142-0.951c0-1.443-1.985-3.972-1.985-3.972s-1.986,2.529-1.986,3.972   C27.37,21.265,27.423,21.584,27.511,21.88z M14.283,12.01c0-1.979,2.722-5.444,2.722-5.444s2.724,3.465,2.724,5.444   c0,0.461-0.072,0.899-0.193,1.303c1.095-1.036,1.811-2.722,1.811-4.633c0-3.154-4.34-8.68-4.34-8.68s-4.34,5.526-4.34,8.68   c0,1.911,0.716,3.597,1.811,4.633C14.354,12.909,14.283,12.471,14.283,12.01z M29.856,23.999v-4.667h-1.002v4.667H25.69V45h7.332   V23.999H29.856z M17.688,9.823h-1.371v6.396h-4.34V45h10.051V16.218h-4.34V9.823z" fill="#000000"/>
</g>
<g>
</g>
<g>
</g>
<g>
</g>
<g>
</g>
<g>
</g>
<g>
</g>
<g>
</g>
<g>
</g>
<g>
</g>
<g>
</g>
<g>
</g>
<g>
</g>
<g>
</g>
<g>
</g>
<g>
</g>
</svg>
