<?xml version="1.0" encoding="iso-8859-1"?>
<!-- Generator: Adobe Illustrator 17.1.0, SVG Export Plug-In . SVG Version: 6.00 Build 0)  -->
<!DOCTYPE svg PUBLIC "-//W3C//DTD SVG 1.1//EN" "http://www.w3.org/Graphics/SVG/1.1/DTD/svg11.dtd">
<svg xmlns="http://www.w3.org/2000/svg" xmlns:xlink="http://www.w3.org/1999/xlink" version="1.1" id="Capa_1" x="0px" y="0px" viewBox="0 0 456.51 456.51" style="enable-background:new 0 0 456.51 456.51;" xml:space="preserve" width="512px" height="512px">
<path d="M359.21,420.989H97.299C43.648,420.989,0,377.34,0,323.688c0-53.653,43.648-97.303,97.299-97.303c5.522,0,10,4.477,10,10  s-4.478,10-10,10C54.676,246.385,20,281.062,20,323.686c0,42.625,34.676,77.303,77.299,77.303H359.21  c42.623,0,77.3-34.677,77.3-77.301c0-42.625-34.677-77.303-77.3-77.303c-5.522,0-10-4.477-10-10s4.478-10,10-10  c53.651,0,97.3,43.649,97.3,97.301C456.51,377.339,412.861,420.989,359.21,420.989z M339.255,353.187h-98  c-16.267,0-29.5-13.234-29.5-29.5s13.233-29.5,29.5-29.5c5.522,0,10,4.477,10,10s-4.478,10-10,10c-5.238,0-9.5,4.262-9.5,9.5  s4.262,9.5,9.5,9.5h98c5.238,0,9.5-4.262,9.5-9.5s-4.262-9.5-9.5-9.5c-5.522,0-10-4.477-10-10s4.478-10,10-10  c16.267,0,29.5,13.234,29.5,29.5S355.521,353.187,339.255,353.187z M125.627,343.987c-9.891,0-19.852-3.999-27.086-10.97  c-4.01-3.866-9.694-6.038-14.837-5.666c-3.706,0.268-6.638,1.759-8.712,4.435c-3.386,4.365-9.669,5.157-14.03,1.774  c-4.364-3.385-5.159-9.667-1.774-14.031c5.542-7.146,13.738-11.452,23.078-12.126c10.793-0.774,22.065,3.416,30.156,11.215  c3.789,3.651,9.286,5.697,14.369,5.328c2.621-0.189,6.284-1.109,8.854-4.419c3.388-4.364,9.67-5.155,14.031-1.769  c4.363,3.386,5.155,9.667,1.77,14.031c-5.53,7.126-13.775,11.426-23.217,12.106C127.363,343.957,126.495,343.987,125.627,343.987z   M306.608,314.833h-32.707c-5.522,0-10-4.477-10-10s4.478-10,10-10h6.354V174.395c0-5.523,4.478-10,10-10s10,4.477,10,10v120.439  h6.354c5.522,0,10,4.477,10,10S312.131,314.833,306.608,314.833z M182.137,279.123c-0.181,0-0.361-0.005-0.543-0.015  c-5.515-0.295-9.746-5.005-9.451-10.52l0.428-7.995c0.295-5.516,5.041-9.749,10.52-9.452c5.515,0.295,9.747,5.005,9.451,10.52  l-0.428,7.995C191.828,274.99,187.414,279.123,182.137,279.123z M187.163,234.526c-0.181,0-0.361-0.004-0.543-0.014  c-5.516-0.295-9.747-5.005-9.451-10.521l0.751-14.032c0.295-5.515,5.031-9.741,10.52-9.451c5.516,0.295,9.747,5.005,9.451,10.521  l-0.751,14.032C196.854,230.393,192.44,234.526,187.163,234.526z M239.255,233.687c-5.522,0-10-4.477-10-10v-11.75  c0-5.523,4.478-10,10-10s10,4.477,10,10v11.75C249.255,229.21,244.777,233.687,239.255,233.687z M400.404,213.251  c-4.811,0-9.052-3.48-9.856-8.381l-1.027-6.259c-0.895-5.45,2.799-10.593,8.248-11.488c5.466-0.893,10.595,2.8,11.488,8.248  l1.027,6.258c0.895,5.45-2.799,10.593-8.248,11.488C401.487,213.208,400.941,213.251,400.404,213.251z M341.255,198.187  c-5.522,0-10-4.477-10-10v-48.5c0-8.547-6.953-15.5-15.5-15.5s-15.5,6.953-15.5,15.5c0,5.523-4.478,10-10,10s-10-4.477-10-10  c0-8.547-6.953-15.5-15.5-15.5s-15.5,6.953-15.5,15.5v37.5c0,5.523-4.478,10-10,10s-10-4.477-10-10v-37.5  c0-19.575,15.925-35.5,35.5-35.5c2.796,0,5.516,0.325,8.127,0.938c-6.966-9.061-17.91-14.91-30.196-14.91  c-20.991,0-38.068,17.078-38.068,38.069c0,5.523-4.478,10-10,10s-10-4.477-10-10c0-32.02,26.05-58.069,58.068-58.069  c19.809,0,37.335,9.972,47.819,25.157c10.484-15.185,28.011-25.157,47.819-25.157c32.019,0,58.068,26.049,58.068,58.069  c0,5.523-4.478,10-10,10s-10-4.477-10-10c0-20.991-17.077-38.069-38.068-38.069c-12.225,0-23.12,5.791-30.091,14.773  c2.425-0.525,4.942-0.802,7.521-0.802c19.575,0,35.5,15.925,35.5,35.5v48.5C351.255,193.71,346.777,198.187,341.255,198.187z   M190.479,187.845c-0.181,0-0.361-0.005-0.543-0.015c-5.516-0.295-9.747-5.005-9.451-10.52l0.751-14.032  c0.295-5.515,5.021-9.749,10.52-9.451c5.516,0.295,9.747,5.005,9.451,10.521l-0.751,14.031  C200.17,183.712,195.756,187.845,190.479,187.845z M392.6,178.568c-4.811,0-9.052-3.48-9.856-8.382l-1.803-10.985  c-0.895-5.45,2.799-10.593,8.249-11.488c5.459-0.895,10.593,2.799,11.487,8.249l1.803,10.985c0.895,5.45-2.799,10.593-8.249,11.488  C393.683,178.524,393.138,178.568,392.6,178.568z M290.755,67.312c-5.522,0-10-4.477-10-10V45.521c0-5.523,4.478-10,10-10  s10,4.477,10,10v11.792C300.755,62.835,296.277,67.312,290.755,67.312z" fill="#000000"/>
<g>
</g>
<g>
</g>
<g>
</g>
<g>
</g>
<g>
</g>
<g>
</g>
<g>
</g>
<g>
</g>
<g>
</g>
<g>
</g>
<g>
</g>
<g>
</g>
<g>
</g>
<g>
</g>
<g>
</g>
</svg>
