<?xml version="1.0" encoding="iso-8859-1"?>
<!-- Generator: Adobe Illustrator 17.1.0, SVG Export Plug-In . SVG Version: 6.00 Build 0)  -->
<!DOCTYPE svg PUBLIC "-//W3C//DTD SVG 1.1//EN" "http://www.w3.org/Graphics/SVG/1.1/DTD/svg11.dtd">
<svg xmlns="http://www.w3.org/2000/svg" xmlns:xlink="http://www.w3.org/1999/xlink" version="1.1" id="Capa_1" x="0px" y="0px" viewBox="0 0 211.822 211.822" style="enable-background:new 0 0 211.822 211.822;" xml:space="preserve" width="512px" height="512px">
<path d="M211.822,152.853c0,27.104-45.532,47.542-105.911,47.542S0,179.957,0,152.853c0-18.866,22.065-34.5,55.839-42.262  L39.835,80.838l-4.191,8.229c-1.881,3.691-6.399,5.158-10.087,3.28c-3.691-1.88-5.16-6.396-3.28-10.087L32.97,61.265  c1.267-2.487,3.81-4.064,6.6-4.097c2.818-0.063,5.367,1.49,6.689,3.947l22.395,41.633V83.944c-4.815-2.655-8.086-7.778-8.086-13.654  V34.713c0-5.876,3.271-11,8.086-13.655v-2.131c0-4.143,3.357-7.5,7.5-7.5s7.5,3.357,7.5,7.5v2.131  c4.814,2.655,8.085,7.779,8.085,13.655V70.29c0,5.876-3.271,10.999-8.085,13.654v11.612L105.2,57.507  c2.041-3.604,6.619-4.871,10.222-2.831c3.604,2.041,4.872,6.618,2.831,10.222l-23.01,40.632c3.499-0.143,7.056-0.219,10.668-0.219  c14.581,0,28.292,1.195,40.709,3.385V91.443c-5.398-2.686-9.125-8.245-9.125-14.672V52.565c0-6.427,3.727-11.986,9.125-14.672v-0.79  c0-4.143,3.357-7.5,7.5-7.5s7.5,3.357,7.5,7.5v1.013c5.151,2.767,8.663,8.204,8.663,14.449v24.206  c0,6.245-3.512,11.682-8.663,14.449v11.213l7.595-7.728c2.663-2.709,6.935-3,9.938-0.676l11.551,8.933  c3.277,2.533,3.879,7.244,1.345,10.521c-2.533,3.277-7.244,3.88-10.521,1.345l-6.282-4.857l-4.634,4.715  C195.985,123.208,211.822,136.87,211.822,152.853z" fill="#000000"/>
<g>
</g>
<g>
</g>
<g>
</g>
<g>
</g>
<g>
</g>
<g>
</g>
<g>
</g>
<g>
</g>
<g>
</g>
<g>
</g>
<g>
</g>
<g>
</g>
<g>
</g>
<g>
</g>
<g>
</g>
</svg>
