<?xml version="1.0" encoding="iso-8859-1"?>
<!-- Generator: Adobe Illustrator 18.1.1, SVG Export Plug-In . SVG Version: 6.00 Build 0)  -->
<svg xmlns="http://www.w3.org/2000/svg" xmlns:xlink="http://www.w3.org/1999/xlink" version="1.1" id="Capa_1" x="0px" y="0px" viewBox="0 0 262.292 262.292" style="enable-background:new 0 0 262.292 262.292;" xml:space="preserve" width="512px" height="512px">
<g>
	<g>
		<path d="M41.573,152.131c27.557,8.697,23.277-32.271,10.124-51.449    C51.485,122.858,23.028,142.265,41.573,152.131z" fill="#000000"/>
		<path d="M180.229,102.217v160.074h66.917V102.217C218.928,122.82,196.73,125.649,180.229,102.217z" fill="#000000"/>
		<path d="M206.65,104.004c27.561,8.698,23.277-32.269,10.131-51.448    C216.566,74.733,188.104,94.144,206.65,104.004z" fill="#000000"/>
		<path d="M111.095,35.853v226.439h40.111V35.283C138.01,56.077,125.451,58.935,111.095,35.853z" fill="#000000"/>
		<path d="M125.598,40.638C147.37,47.505,143.984,15.148,133.6,0    C133.432,17.517,110.951,32.847,125.598,40.638z" fill="#000000"/>
		<path d="M15.147,155.352v106.939h66.917V155.352C53.846,169.117,31.648,171.006,15.147,155.352z" fill="#000000"/>
	</g>
</g>
<g>
</g>
<g>
</g>
<g>
</g>
<g>
</g>
<g>
</g>
<g>
</g>
<g>
</g>
<g>
</g>
<g>
</g>
<g>
</g>
<g>
</g>
<g>
</g>
<g>
</g>
<g>
</g>
<g>
</g>
</svg>
