<?xml version="1.0" encoding="iso-8859-1"?>
<!-- Generator: Adobe Illustrator 18.0.0, SVG Export Plug-In . SVG Version: 6.00 Build 0)  -->
<!DOCTYPE svg PUBLIC "-//W3C//DTD SVG 1.1//EN" "http://www.w3.org/Graphics/SVG/1.1/DTD/svg11.dtd">
<svg xmlns="http://www.w3.org/2000/svg" xmlns:xlink="http://www.w3.org/1999/xlink" version="1.1" id="Capa_1" x="0px" y="0px" viewBox="0 0 493.172 493.172" style="enable-background:new 0 0 493.172 493.172;" xml:space="preserve" width="512px" height="512px">
<g>
	<path d="M192.425,108.817c30.049,0,54.414-24.355,54.414-54.405S222.474,0,192.425,0c-30.05,0-54.413,24.363-54.413,54.413   S162.375,108.817,192.425,108.817z" fill="#000000"/>
	<path d="M407.704,77.668V51.67c0-4.553-3.684-8.236-8.236-8.236c-4.553,0-8.236,3.684-8.236,8.236v25.996h-20.124V51.67   c0-4.553-3.684-8.236-8.236-8.236c-4.553,0-8.236,3.684-8.236,8.236v25.996H334.51V51.67c0-4.553-3.684-8.236-8.236-8.236   c-4.552,0-8.236,3.684-8.236,8.236v25.996h-20.124V51.67c0-4.553-3.684-8.236-8.236-8.236c-4.553,0-8.236,3.684-8.236,8.236v25.996   h-0.001c-4.56,0-8.251,3.692-8.251,8.252v10.939c0,4.561,3.691,8.252,8.251,8.252h50.76l-0.135,67.852   c-0.173,0.085-0.358,0.121-0.531,0.21l-36.203,18.749l-32.768-47.777c-1.764-2.566-3.994-4.639-6.248-6.666   c-0.096-7.186-4.097-14.026-10.982-17.335l-10.848-5.228c-3.194-1.536-6.758-2.349-10.304-2.349c-3.58,0-7.176,0.82-10.393,2.389   c-4.926,2.415-8.75,6.332-11.028,11.116h-20.67c-2.276-4.793-6.114-8.718-11.035-11.108c-3.187-1.561-6.798-2.397-10.401-2.397   c-3.547,0-7.102,0.813-10.296,2.349l-10.865,5.236c-7.756,3.731-11.644,11.957-10.554,20.133   c-3.715,4.157-6.721,9.005-8.534,14.573L78.452,283.815c-4.223,12.974,2.872,26.913,15.853,31.136   c2.534,0.828,5.115,1.222,7.649,1.222c5.252,0,10.161-1.861,14.268-4.921c0.575,10.229,7.16,18.816,16.33,22.286v134.637   c0,13.803,11.196,24.997,24.997,24.997c13.811,0,24.999-11.188,24.999-24.997V335.243h19.753v132.932   c0,13.81,11.189,24.997,25,24.997c13.81,0,24.998-11.188,24.998-24.997V333.537c9.598-3.633,16.473-12.846,16.473-23.702v-74.063   c12.249,8.85,28.703,10.683,42.798,3.394l20.37-10.55l-0.567,252.114c-0.016,6.82,5.501,12.362,12.331,12.378   c0.008,0,0.016,0,0.024,0c6.813,0,12.338-5.51,12.354-12.33l0.597-265.3c10.237-6.922,13.983-20.483,8.162-31.73   c-1.95-3.768-4.794-6.723-8.072-8.955l0.139-69.684h50.779c4.561,0,8.252-3.692,8.252-8.252V85.918   C415.94,81.364,412.257,77.679,407.704,77.668z M252.299,309.835c0,4.939-3.997,8.935-8.936,8.935H141.486   c-4.939,0-8.934-3.997-8.934-8.935V206.672c0-0.917,0.41-1.786,1.116-2.357c9.676-7.915,16.289-23.132,16.289-40.788   c0-9.065-1.778-17.469-4.786-24.62c-0.628-1.496,0.023-3.217,1.48-3.917l10.858-5.236c0.991-0.482,2.067-0.716,3.145-0.716   c1.093,0,2.187,0.249,3.202,0.74c2.001,0.974,3.45,2.815,3.915,4.995c4.996,22.963,14.157,38.366,24.653,38.366   c10.487,0,19.65-15.402,24.645-38.373c0.466-2.172,1.913-4.014,3.917-4.995c1.007-0.491,2.101-0.732,3.194-0.732   c1.077,0,2.155,0.233,3.152,0.716l10.865,5.236c1.457,0.7,2.109,2.429,1.481,3.917c-3.007,7.15-4.785,15.555-4.785,24.62   c0,17.656,6.61,32.873,16.287,40.788c0.708,0.58,1.118,1.44,1.118,2.357V309.835z" fill="#000000"/>
</g>
<g>
</g>
<g>
</g>
<g>
</g>
<g>
</g>
<g>
</g>
<g>
</g>
<g>
</g>
<g>
</g>
<g>
</g>
<g>
</g>
<g>
</g>
<g>
</g>
<g>
</g>
<g>
</g>
<g>
</g>
</svg>
