<?xml version="1.0" encoding="iso-8859-1"?>
<!-- Generator: Adobe Illustrator 18.1.1, SVG Export Plug-In . SVG Version: 6.00 Build 0)  -->
<svg xmlns="http://www.w3.org/2000/svg" xmlns:xlink="http://www.w3.org/1999/xlink" version="1.1" id="Capa_1" x="0px" y="0px" viewBox="0 0 18.301 18.301" style="enable-background:new 0 0 18.301 18.301;" xml:space="preserve" width="512px" height="512px">
<g>
	<path d="M14.716,13.861l-3.354-1.657l0.002-3.127V7.464h0.432L9.419,4.075V1.747h1.019V1.064H9.419V0H8.736   v1.064H7.718v0.683h1.018v2.318L6.359,7.462H6.79v4.708l-3.18,1.368c-0.253,0.108-0.371,0.403-0.262,0.656   c0.109,0.255,0.405,0.371,0.657,0.262l0.374-0.161v4.006h3.866V14.81h0.021c0.053-0.446,0.422-1.5,0.886-1.5s0.832,1.054,0.886,1.5   h0.021v3.491h3.623v-3.835l0.591,0.292c0.071,0.035,0.146,0.052,0.222,0.052c0.184,0,0.361-0.103,0.448-0.278   C15.065,14.283,14.963,13.983,14.716,13.861z M10.062,9.864H8.091V7.567h1.971V9.864z" fill="#000000"/>
</g>
<g>
</g>
<g>
</g>
<g>
</g>
<g>
</g>
<g>
</g>
<g>
</g>
<g>
</g>
<g>
</g>
<g>
</g>
<g>
</g>
<g>
</g>
<g>
</g>
<g>
</g>
<g>
</g>
<g>
</g>
</svg>
