<?xml version="1.0" encoding="iso-8859-1"?>
<!-- Generator: Adobe Illustrator 18.0.0, SVG Export Plug-In . SVG Version: 6.00 Build 0)  -->
<!DOCTYPE svg PUBLIC "-//W3C//DTD SVG 1.1//EN" "http://www.w3.org/Graphics/SVG/1.1/DTD/svg11.dtd">
<svg version="1.1" id="Capa_1" xmlns="http://www.w3.org/2000/svg" xmlns:xlink="http://www.w3.org/1999/xlink" x="0px" y="0px"
	 viewBox="0 0 50.416 50.416" style="enable-background:new 0 0 50.416 50.416;" xml:space="preserve">
<path d="M48.916,22.826h-4.083H42.25v-3h5.333c0.828,0,1.5-0.671,1.5-1.5s-0.672-1.5-1.5-1.5H42.25v-3.167h5.333
	c0.828,0,1.5-0.671,1.5-1.5s-0.672-1.5-1.5-1.5H42.25v-0.5c0-0.829-0.672-1.5-1.5-1.5c-0.828,0-1.5,0.671-1.5,1.5v0.5H11.166v-0.5
	c0-0.829-0.672-1.5-1.5-1.5c-0.828,0-1.5,0.671-1.5,1.5v0.5H2.833c-0.828,0-1.5,0.671-1.5,1.5s0.672,1.5,1.5,1.5h5.333v3.167H2.833
	c-0.828,0-1.5,0.671-1.5,1.5s0.672,1.5,1.5,1.5h5.333v3H5.583H1.5c-0.828,0-1.5,0.671-1.5,1.5v4.083c0,0.829,0.672,1.5,1.5,1.5
	h2.583v10.348c0,0.829,0.672,1.5,1.5,1.5s1.5-0.671,1.5-1.5V29.909h1.083v8.348c0,0.829,0.672,1.5,1.5,1.5
	c0.828,0,1.5-0.671,1.5-1.5v-8.348H39.25v8.348c0,0.829,0.672,1.5,1.5,1.5c0.828,0,1.5-0.671,1.5-1.5v-8.348h1.083v10.348
	c0,0.829,0.672,1.5,1.5,1.5c0.828,0,1.5-0.671,1.5-1.5V29.909h2.583c0.828,0,1.5-0.671,1.5-1.5v-4.083
	C50.416,23.498,49.744,22.826,48.916,22.826z M11.166,13.659H39.25v3.167H11.166V13.659z M11.166,19.826H39.25v3H11.166V19.826z"/>
<g>
</g>
<g>
</g>
<g>
</g>
<g>
</g>
<g>
</g>
<g>
</g>
<g>
</g>
<g>
</g>
<g>
</g>
<g>
</g>
<g>
</g>
<g>
</g>
<g>
</g>
<g>
</g>
<g>
</g>
</svg>
