<?xml version="1.0" encoding="iso-8859-1"?>
<!-- Generator: Adobe Illustrator 16.0.0, SVG Export Plug-In . SVG Version: 6.00 Build 0)  -->
<!DOCTYPE svg PUBLIC "-//W3C//DTD SVG 1.1//EN" "http://www.w3.org/Graphics/SVG/1.1/DTD/svg11.dtd">
<svg version="1.1" id="Capa_1" xmlns="http://www.w3.org/2000/svg" xmlns:xlink="http://www.w3.org/1999/xlink" x="0px" y="0px"
	 width="29.157px" height="29.158px" viewBox="0 0 29.157 29.158" style="enable-background:new 0 0 29.157 29.158;"
	 xml:space="preserve">
<g>
	<g>
		<g>
			<path d="M29.121,11.401c-0.148-0.532-0.698-0.843-1.231-0.695L1.187,18.133c-0.532,0.147-0.843,0.699-0.695,1.23
				c0.123,0.442,0.525,0.732,0.963,0.732c0.089,0,0.179-0.013,0.269-0.037l10.29-2.862l-0.734,4.039h6.351l-0.969-5.332
				l11.766-3.272C28.958,12.484,29.269,11.933,29.121,11.401z"/>
			<path d="M1.287,16.458c0.113,0.063,0.241,0.098,0.369,0.098c0.067,0,0.135-0.01,0.201-0.027l2.885-0.803
				c0.399-0.111,0.632-0.524,0.521-0.924c-0.111-0.397-0.523-0.63-0.924-0.521l-2.162,0.602l-0.704-2.532
				c-0.111-0.398-0.522-0.632-0.924-0.521c-0.399,0.111-0.632,0.524-0.521,0.924l0.905,3.254C0.986,16.197,1.113,16.36,1.287,16.458
				z"/>
			<path d="M23.399,10.506c0.065,0,0.134-0.009,0.201-0.027l2.886-0.802c0.19-0.053,0.354-0.181,0.451-0.354
				c0.1-0.173,0.123-0.378,0.069-0.57l-0.906-3.255c-0.11-0.399-0.527-0.632-0.924-0.521c-0.398,0.111-0.632,0.525-0.521,0.924
				l0.705,2.532l-2.162,0.601c-0.398,0.111-0.632,0.524-0.521,0.924C22.77,10.289,23.071,10.506,23.399,10.506z"/>
			<path d="M23.172,22.208H5.735c-0.552,0-1,0.447-1,1s0.448,1,1,1h17.438c0.552,0,1-0.447,1-1S23.725,22.208,23.172,22.208z"/>
		</g>
	</g>
</g>
<g>
</g>
<g>
</g>
<g>
</g>
<g>
</g>
<g>
</g>
<g>
</g>
<g>
</g>
<g>
</g>
<g>
</g>
<g>
</g>
<g>
</g>
<g>
</g>
<g>
</g>
<g>
</g>
<g>
</g>
</svg>
