<?xml version="1.0" encoding="iso-8859-1"?>
<!-- Generator: Adobe Illustrator 16.0.0, SVG Export Plug-In . SVG Version: 6.00 Build 0)  -->
<!DOCTYPE svg PUBLIC "-//W3C//DTD SVG 1.1//EN" "http://www.w3.org/Graphics/SVG/1.1/DTD/svg11.dtd">
<svg version="1.1" id="Capa_1" xmlns="http://www.w3.org/2000/svg" xmlns:xlink="http://www.w3.org/1999/xlink" x="0px" y="0px"
	 width="529.688px" height="529.688px" viewBox="0 0 529.688 529.688" style="enable-background:new 0 0 529.688 529.688;"
	 xml:space="preserve">
<g>
	<path d="M84.484,255.183c0,0-8.864,126.378-25.867,175.893c-17.002,49.515-5.173,77.6,16.257,80.554
		c21.43,2.955,56.17-140.425,56.906-148.553c0.736-8.129,22.176,148.64,60.607,148.592s-1.482-133.818-4.438-140.464
		c-2.955-6.655,75.382,17.002,93.12,18.475c17.738,1.482-46.561,109.472-0.736,121.989c45.823,12.517,51.733-96.123,51.733-106.47
		s34.73,117.39,74.645,107.474c39.914-9.917-22.176-126.685-35.477-148.123c0,0,40.65-92.384,42.122-110.858
		c0,0,67.99,8.128,77.601,6.655c9.609-1.482,47.296-43.604,36.949-49.514s-50.261-38.432-56.17-62.816
		c-5.91-24.384-62.816-37.695-142.645-20.693c0,0,20.693,19.211,31.04,20.693c6.809,0.976-18.389,31.929-47.774,53.062L29.05,16.465
		L17.374,30.474l275.296,182.701c-8.97,4.447-17.768,7.268-25.647,7.268c-39.904,0-202.505,25.13-246.846-46.56
		c0,0-14.784-0.736-19.211,13.301C-3.473,201.231,4.665,234.49,84.484,255.183z"/>
</g>
<g>
</g>
<g>
</g>
<g>
</g>
<g>
</g>
<g>
</g>
<g>
</g>
<g>
</g>
<g>
</g>
<g>
</g>
<g>
</g>
<g>
</g>
<g>
</g>
<g>
</g>
<g>
</g>
<g>
</g>
</svg>
